<svg width="20" height="21" viewBox="0 0 20 21" fill="none" xmlns="http://www.w3.org/2000/svg">
<path d="M17.9993 10.0799L10.3229 17.8178C9.262 18.8871 7.82316 19.4879 6.32287 19.4879C3.19868 19.4879 0.666016 16.935 0.666016 13.7858C0.666016 12.2735 1.262 10.8231 2.32287 9.75377L10.2281 1.78528C10.9354 1.07238 11.8946 0.671875 12.8948 0.671875C14.9776 0.671875 16.666 2.37382 16.666 4.47328C16.666 5.48148 16.2687 6.44838 15.5614 7.16128L7.88497 14.8992C7.53134 15.2556 7.05173 15.4559 6.55163 15.4559C5.51024 15.4559 4.66602 14.6049 4.66602 13.5552C4.66602 13.0511 4.86468 12.5676 5.2183 12.2112L12.666 4.70387" stroke="currentColor"/>
</svg>
