<svg width="24" height="24" viewBox="0 0 24 24" fill="none" xmlns="http://www.w3.org/2000/svg">
<path fill-rule="evenodd" clip-rule="evenodd" d="M12 0C5.37258 0 0 5.37258 0 12C0 18.6274 5.37258 24 12 24C18.6274 24 24 18.6274 24 12C24 5.37258 18.6274 0 12 0ZM7.10764 8.14775C7.60887 8.09577 8.05915 8.04908 8.39584 8.63427C8.65096 9.07768 8.93602 9.84243 9.19859 10.5469C9.38531 11.0478 9.56066 11.5182 9.70579 11.8209C10.055 12.5493 10.4334 12.7314 10.5789 12.7314C10.7244 12.7314 10.5789 9.54474 10.5789 9.54474C10.5789 9.42184 10.4881 9.33917 10.3879 9.24786C10.2405 9.11368 10.0727 8.96083 10.1423 8.63427C10.2855 7.96254 11.6542 7.84815 12.325 8.17903C12.987 8.50561 13.0383 9.68624 13.0795 10.6352C13.1173 11.5077 13.1467 12.1844 13.6346 11.8209C14.3797 11.2659 14.7355 10.305 15.0437 9.47264C15.1568 9.16704 15.2635 8.87877 15.3808 8.63427C15.73 7.9059 16.6904 8.02729 17.5635 8.17904C17.709 8.17904 17.9127 8.36113 17.5635 9.0895C17.2142 9.81788 16.2538 11.5174 15.8173 12.2761C15.5847 12.6804 16.2198 13.3002 16.8638 13.9287C17.4284 14.4797 18 15.0375 18 15.4628C18 15.918 16.6454 16.1286 15.8173 15.918C15.0752 15.7293 14.3789 14.8963 13.8743 14.2926C13.5667 13.9246 13.3303 13.6418 13.1981 13.6418C12.7616 13.6418 12.7616 15.0075 12.7616 15.4628C12.7616 15.918 10.3484 16.1329 8.39618 14.0971C7.08656 12.7314 4.90356 8.17904 6.64991 8.17903C6.80588 8.17903 6.959 8.16316 7.10764 8.14775Z" fill="currentColor"/>
</svg>
