<svg width="20" height="21" viewBox="0 0 20 21" fill="none" xmlns="http://www.w3.org/2000/svg">
<path d="M7.68862 11.072L7.33648 10.717L6.62656 11.4213L6.9787 11.7763L7.68862 11.072ZM10.0003 14.1121L9.64537 14.4643L10.0003 14.8221L10.3553 14.4643L10.0003 14.1121ZM13.022 11.7763L13.3741 11.4213L12.6642 10.717L12.312 11.072L13.022 11.7763ZM0.666992 10.0801L0.166992 10.0801L0.666992 10.0801ZM10.0003 0.672119L10.0003 0.172119L10.0003 0.672119ZM10.0003 19.4881L10.0003 18.9881L10.0003 19.4881ZM19.3337 10.0801L18.8337 10.0801L19.3337 10.0801ZM6.9787 11.7763L9.64537 14.4643L10.3553 13.76L7.68862 11.072L6.9787 11.7763ZM10.3553 14.4643L13.022 11.7763L12.312 11.072L9.64537 13.76L10.3553 14.4643ZM10.5003 14.1121L10.5003 5.37612L9.50033 5.37612L9.50033 14.1121L10.5003 14.1121ZM1.16699 10.0801C1.16699 5.1566 5.12556 1.17212 10.0003 1.17212L10.0003 0.172119C4.56578 0.172119 0.166992 4.61185 0.166992 10.0801L1.16699 10.0801ZM10.0003 18.9881C5.12556 18.9881 1.16699 15.0036 1.16699 10.0801L0.166992 10.0801C0.166992 15.5484 4.56578 19.9881 10.0003 19.9881L10.0003 18.9881ZM18.8337 10.0801C18.8337 15.0036 14.8751 18.9881 10.0003 18.9881L10.0003 19.9881C15.4349 19.9881 19.8337 15.5484 19.8337 10.0801L18.8337 10.0801ZM19.8337 10.0801C19.8337 4.61185 15.4349 0.172119 10.0003 0.172119L10.0003 1.17212C14.8751 1.17212 18.8337 5.1566 18.8337 10.0801L19.8337 10.0801Z" fill="currentColor"/>
</svg>
