<svg width="20" height="20" viewBox="0 0 20 20" fill="none" xmlns="http://www.w3.org/2000/svg">
<path d="M6.29238 0.666504H3.33341C1.86066 0.666504 0.666748 1.86041 0.666748 3.33317V5.99984C0.666748 13.3636 6.63628 19.3332 14.0001 19.3332H16.6667C18.1395 19.3332 19.3334 18.1393 19.3334 16.6665V14.8239C19.3334 14.3189 19.0481 13.8572 18.5964 13.6313L15.3751 12.0207C14.6494 11.6578 13.7705 12.0219 13.5139 12.7916L13.1169 13.9827C12.8597 14.7542 12.0683 15.2135 11.2709 15.054C8.07913 14.4156 5.58427 11.9208 4.94593 8.72906C4.78643 7.9316 5.24571 7.14018 6.01723 6.88301L7.4954 6.39029C8.15636 6.16997 8.53627 5.47791 8.36729 4.802L7.5859 1.67646C7.43751 1.0829 6.9042 0.666504 6.29238 0.666504Z" stroke="currentColor"/>
</svg>
