<svg width="170" height="69" viewBox="0 0 170 69" fill="none" xmlns="http://www.w3.org/2000/svg">
<g clip-path="url(#clip0_402_8555)">
<path d="M162.72 13.9421C161.996 11.267 159.839 9.21901 157.126 8.64303C146.002 6.24949 130.033 3.68956 109.4 3.67676C108.935 3.67676 108.47 3.67676 107.992 3.67676C83.3664 3.83035 69.8523 5.11032 57.9144 6.23669L57.4234 6.28789C45.3951 7.42706 25.5244 10.755 25.3306 10.7934L25.2273 10.8062C25.2143 10.8062 24.3229 10.9854 23.2893 10.9854C22.2945 10.9854 21.7777 10.819 21.558 10.7294C19.788 9.9358 18.3668 9.47501 16.3772 9.47501C15.5632 9.47501 14.6718 9.55181 13.5736 9.7054C9.78808 10.2686 6.70024 12.0861 5.51162 14.4541C4.36175 16.7836 4.37467 19.6891 4.38759 21.6091V21.6475C4.38759 21.7755 4.38759 21.9035 4.38759 22.0443V22.1467C4.43927 24.5658 4.64599 36.8919 4.68475 40.6934C4.71059 43.1253 4.45219 47.234 4.24548 50.5363C4.10336 52.8275 4 54.645 4 55.4386C4.09044 61.2113 7.17827 64.7952 12.0749 64.7952C13.3152 64.7952 14.6847 64.5648 16.1446 64.1168C16.1963 64.0912 21.2996 62.4784 22.4883 62.0304C23.974 61.4673 26.7647 59.6497 27.9792 57.1666C28.2505 56.629 28.5476 56.0018 28.819 55.5538C29.2324 54.8882 29.9042 54.7858 30.4081 55.1442C32.3848 56.5394 33.9223 57.2946 35.9119 57.2946C37.0618 57.3074 38.0566 57.0514 38.8706 56.8594L38.9869 56.8338C39.3874 56.7314 40.1496 56.4882 41.9843 55.8994C48.8576 53.6851 66.6611 47.7588 85.5111 43.6117C111.17 37.9799 135.627 35.0487 158.715 35.9575C163.715 36.1495 167.462 31.4392 166.157 26.6266L162.72 13.9421Z" fill="#682423"/>
<path d="M162.72 13.9421C161.996 11.267 159.839 9.21901 157.126 8.64303C146.002 6.24949 130.033 3.68956 109.4 3.67676C108.935 3.67676 108.47 3.67676 107.992 3.67676C83.3664 3.83035 69.8523 5.11032 57.9144 6.23669L57.4234 6.28789C45.3951 7.42706 25.5244 10.755 25.3306 10.7934L25.2273 10.8062C25.2143 10.8062 24.3229 10.9854 23.2893 10.9854C22.2945 10.9854 21.7777 10.819 21.558 10.7294C19.788 9.9358 18.3668 9.47501 16.3772 9.47501C15.5632 9.47501 14.6718 9.55181 13.5736 9.7054C9.78808 10.2686 6.70024 12.0861 5.51162 14.4541C4.36175 16.7836 4.37467 19.6891 4.38759 21.6091V21.6475C4.38759 21.7755 4.38759 21.9035 4.38759 22.0443V22.1467C4.43927 24.5658 4.64599 36.8919 4.68475 40.6934C4.71059 43.1253 4.45219 47.234 4.24548 50.5363C4.10336 52.8275 4 54.645 4 55.4386C4.09044 61.2113 7.17827 64.7952 12.0749 64.7952C13.3152 64.7952 14.6847 64.5648 16.1446 64.1168C16.1963 64.0912 21.2996 62.4784 22.4883 62.0304C23.974 61.4673 26.7647 59.6497 27.9792 57.1666C28.2505 56.629 28.5476 56.0018 28.819 55.5538C29.2324 54.8882 29.9042 54.7858 30.4081 55.1442C32.3848 56.5394 33.9223 57.2946 35.9119 57.2946C37.0618 57.3074 38.0566 57.0514 38.8706 56.8594L38.9869 56.8338C39.3874 56.7314 40.1496 56.4882 41.9843 55.8994C48.8576 53.6851 66.6611 47.7588 85.5111 43.6117C111.17 37.9799 135.627 35.0487 158.715 35.9575C163.715 36.1495 167.462 31.4392 166.157 26.6266L162.72 13.9421Z" stroke="#5F2321" stroke-width="6.41748" stroke-miterlimit="10"/>
<path d="M162.72 13.6346C161.996 10.9594 159.839 8.91149 157.126 8.32271C146.002 5.94197 130.033 3.36924 109.4 3.35645C108.935 3.35645 108.47 3.35645 107.992 3.36924C83.3664 3.51004 69.8523 4.80281 57.9144 5.92918L57.4234 5.98038C45.3951 7.11955 25.5244 10.4475 25.3306 10.4731L25.2273 10.4987C25.2143 10.4987 24.3229 10.6779 23.2893 10.6779C22.2945 10.6779 21.7777 10.5115 21.558 10.4091C19.788 9.62827 18.3668 9.16749 16.3772 9.16749C15.5632 9.16749 14.6718 9.24429 13.5736 9.39789C9.78808 9.96107 6.70024 11.7786 5.51162 14.1466C4.36175 16.4633 4.37467 19.3816 4.38759 21.3016V21.3272C4.38759 21.468 4.38759 21.596 4.38759 21.724V21.8264C4.43927 24.2583 4.64599 36.5716 4.68475 40.3859C4.71059 42.8178 4.45219 46.9265 4.24548 50.2288C4.10336 52.52 4 54.3247 4 55.1183C4.09044 60.8909 7.17827 64.4877 12.0749 64.4877C13.3152 64.4877 14.6847 64.2573 16.1446 63.7965C16.1963 63.7837 21.2996 62.1709 22.4883 61.7229C23.974 61.1597 26.7647 59.3422 27.9792 56.8463C28.2505 56.3215 28.5476 55.6943 28.819 55.2463C29.2324 54.5807 29.9042 54.4783 30.4081 54.8367C32.3848 56.2319 33.9223 56.987 35.9119 56.987C37.0618 56.987 38.0566 56.7439 38.8706 56.5519L38.9869 56.5135C39.3874 56.4239 40.1496 56.1807 41.9843 55.5919C48.8576 53.3775 66.6611 47.4513 85.5111 43.3042C111.17 37.6724 135.627 34.7284 158.715 35.6372C163.715 35.842 167.462 31.1317 166.157 26.319L162.72 13.6346Z" fill="#5F2321"/>
<path d="M164.516 12.7389C163.792 10.0638 161.609 8.00302 158.87 7.41423C147.655 5.0207 131.544 2.44796 110.743 2.42236C110.265 2.42236 109.8 2.42236 109.322 2.43516C84.4904 2.58876 70.8471 3.86873 58.8187 5.0079L58.3148 5.04629C46.1831 6.19827 26.1445 9.53898 25.9378 9.57738L25.8473 9.59018C25.8344 9.59018 24.93 9.78217 23.8965 9.76937C22.8887 9.76937 22.359 9.60298 22.1394 9.51338C20.3564 8.7198 18.9223 8.25901 16.9198 8.25901C16.0929 8.25901 15.2014 8.33581 14.0903 8.48941C10.2661 9.05259 7.15238 10.8829 5.96375 13.2637C4.80097 15.5932 4.81389 18.5115 4.82681 20.4443V20.4699C4.82681 20.6107 4.82681 20.7387 4.82681 20.8667V20.9691C4.86557 23.4138 5.08521 35.7783 5.12396 39.6054C5.1498 42.0501 4.89141 46.1844 4.68469 49.4995C4.54257 51.7907 4.42629 53.6082 4.43921 54.4018C4.51673 60.2001 7.64333 63.8096 12.5787 63.8096C13.819 63.8096 15.2014 63.5792 16.6872 63.1184C16.7389 63.1056 21.881 61.48 23.0825 61.032C24.5683 60.4561 27.3977 58.6385 28.6251 56.1426C28.8835 55.605 29.1936 54.9778 29.4649 54.5298C29.8912 53.8642 30.5631 53.7618 31.067 54.1202C33.0566 55.5282 34.607 56.2834 36.6225 56.2834C37.7723 56.2834 38.7801 56.0402 39.594 55.8354L39.7103 55.8098C40.1237 55.7074 40.8989 55.4642 42.7335 54.8754C49.6715 52.6483 67.6429 46.6964 86.648 42.5365C112.526 36.8791 137.19 33.9351 160.472 34.8439C165.523 35.0359 169.296 30.3128 167.991 25.4874L164.516 12.7389Z" fill="#F3AF30"/>
<path d="M167.203 22.3516L167.991 25.5771C169.064 30.0058 165.549 34.2041 160.963 33.9993C141.958 33.1801 118.444 34.7544 87.0744 41.6023C66.0539 46.1845 46.3253 52.93 42.5786 54.1203C40.7569 54.7091 39.9946 54.9523 39.607 55.0419L39.4908 55.0803C38.7156 55.2723 37.7466 55.5027 36.6742 55.5027C34.775 55.5027 33.3409 54.7475 31.5192 53.4675C31.2221 53.25 30.8732 53.1348 30.5115 53.1348C29.8913 53.1348 29.3099 53.4803 28.9353 54.0691C28.6769 54.4915 28.4056 55.0419 28.173 55.5283L28.0696 55.7459C26.9844 57.9346 24.3875 59.7266 22.8888 60.2898C21.7131 60.7378 16.5839 62.3505 16.5323 62.3761C15.124 62.8113 13.8062 63.0289 12.6305 63.0289C10.4212 63.0289 8.56073 62.2353 7.26875 60.7378C6.5194 59.8802 5.97676 58.8178 5.62793 57.5762C5.96384 59.0098 6.55816 60.2258 7.3721 61.1857C8.67701 62.6833 10.5375 63.4769 12.7467 63.4769C13.9225 63.4769 15.2403 63.2465 16.6485 62.8113C16.7002 62.7985 21.8294 61.1857 23.0051 60.7378C24.5038 60.1746 27.1007 58.3826 28.1859 56.1811L28.2764 55.9763C28.5218 55.4899 28.7932 54.9267 29.0516 54.5171C29.4262 53.9155 29.9947 53.5827 30.6278 53.5827C30.9766 53.5827 31.3254 53.6979 31.6355 53.9027C33.4572 55.1955 34.8913 55.9379 36.7905 55.9507C37.8629 55.9507 38.8319 55.7075 39.607 55.5155L39.7233 55.4899C40.1109 55.4003 40.8732 55.1571 42.6949 54.5683C46.4416 53.378 66.2348 46.5685 87.2812 41.999C115.769 35.804 138.004 33.3593 160.42 34.3832C165.42 34.6136 169.219 29.993 167.952 25.1931C167.513 23.5291 167.203 22.3516 167.203 22.3516Z" fill="#F8D286"/>
<path d="M165.691 16.8604C164.219 11.5741 159.878 7.54223 154.451 6.42866C144.425 4.39351 129.012 2.43516 111.738 2.42236H111.596C111.17 2.42236 110.756 2.43516 110.33 2.43516C85.4594 2.58876 71.8032 3.86873 59.7619 4.9951L59.258 5.0463C47.2555 6.17267 27.0619 9.52618 26.8551 9.56458L26.7905 9.57738C26.7518 9.57738 25.7699 9.76937 24.6329 9.76937C23.7415 9.76937 23.005 9.65418 22.4882 9.42378C20.7828 8.6686 19.5038 8.25901 17.6433 8.25901C16.8681 8.25901 16.0154 8.32301 14.956 8.47661C11.416 9.00139 8.57361 10.627 7.51418 12.7389C6.44184 14.8636 6.45476 17.654 6.46768 19.5099V19.9579C6.46768 20.0987 6.72607 34.4599 6.77775 38.6582C6.80359 41.1414 6.53228 45.2885 6.32556 48.6292C6.18344 50.8947 6.06716 52.6995 6.08008 53.4546C6.1576 58.7665 8.85784 61.928 13.3023 61.928C14.4521 61.928 15.7312 61.7232 17.1136 61.288C17.1653 61.2752 22.3203 59.6625 23.4831 59.2145C24.943 58.6641 27.4753 56.9234 28.5347 54.7858C28.806 54.2482 29.142 53.621 29.3874 53.1474L29.4262 53.0834C29.5425 52.8659 29.6458 52.6867 29.6975 52.5843C29.7879 52.4051 30.1497 51.7779 30.8732 51.7779C31.3642 51.7779 31.9197 52.0595 32.5269 52.5971C33.8706 53.8002 35.5114 54.4018 37.4106 54.4018C38.4571 54.4018 39.3615 54.1842 40.1626 53.9922L40.2788 53.9666C40.6664 53.8642 41.4933 53.6722 43.2504 53.0451C50.4467 50.4595 68.5474 44.8149 87.7204 40.8726C107.733 36.7639 133.78 32.3224 160.976 33.5512C165.653 33.756 169.154 29.3657 167.914 24.8858L165.691 16.8604Z" fill="#F3AF30"/>
<path d="M164.852 13.8525C163.844 10.2174 160.911 7.43986 157.216 6.60788C147.539 4.45754 130.653 2.0128 111.738 2H111.596C111.183 2 110.756 2 110.33 2C85.4594 2.1536 71.8032 3.44636 59.7619 4.57273L59.258 4.62393C47.2555 5.7503 27.0619 9.10382 26.8551 9.12942L26.7905 9.14221C26.7518 9.15501 25.7828 9.34701 24.6458 9.34701C23.7544 9.34701 23.005 9.23181 22.5012 9.00142C20.7828 8.24624 19.5038 7.83665 17.6433 7.83665C16.8681 7.83665 16.0154 7.90065 14.956 8.05424C11.4289 8.56623 8.5736 10.2046 7.51418 12.3037C6.45475 14.4413 6.46767 17.2316 6.46767 19.0876L6.48059 19.5355C6.48059 19.6763 6.73899 34.0376 6.77775 38.2359C6.80359 40.719 6.54519 44.8661 6.32555 48.194C6.18344 50.4723 6.08008 52.2643 6.08008 53.0323C6.1576 58.3313 8.85784 61.5057 13.3023 61.5057C14.4521 61.5057 15.7441 61.2881 17.1265 60.8657C17.1782 60.8401 22.3203 59.2273 23.496 58.7921C24.943 58.2417 27.4753 56.501 28.5347 54.3634C28.806 53.8131 29.1419 53.1987 29.4003 52.7251L29.4262 52.6611C29.5554 52.4435 29.6458 52.2643 29.6975 52.1619C29.7879 51.9699 30.1626 51.3555 30.8861 51.3555C31.3642 51.3555 31.9197 51.6243 32.5269 52.1619C33.8706 53.3651 35.5243 53.9795 37.4235 53.9795C38.4571 53.9795 39.3615 53.7619 40.1625 53.5699L40.2917 53.5315C40.6664 53.4419 41.4804 53.0835 43.2504 52.5075C50.2658 50.0627 66.3769 44.8149 89.2966 40.143C103.586 37.2247 131.674 31.964 160.859 33.1672C165.536 33.3592 169.064 28.9945 167.823 24.5274L164.852 13.8525Z" fill="#FEFEFE"/>
<path d="M164.852 13.8525C163.844 10.2174 160.911 7.43986 157.216 6.60788C147.539 4.45754 130.653 2.0128 111.738 2H111.596C111.183 2 110.756 2 110.33 2C85.4594 2.1536 71.8032 3.44636 59.7619 4.57273L59.258 4.62393C47.2555 5.7503 27.0619 9.10382 26.8551 9.12941L26.7905 9.14221C26.7518 9.15501 25.7828 9.34701 24.6458 9.34701C23.7544 9.34701 23.005 9.23181 22.5012 9.00142C20.7828 8.24624 19.5038 7.83665 17.6433 7.83665C16.8681 7.83665 16.0154 7.90065 14.956 8.05424C11.4289 8.56623 8.5736 10.2046 7.51418 12.3037C6.45475 14.4413 6.46767 17.2316 6.46767 19.0876L6.48059 19.5355C6.48059 19.6763 6.73899 34.0376 6.77775 38.2359C6.80359 40.719 6.54519 44.8661 6.32555 48.194C6.18344 50.4723 6.08008 52.2643 6.08008 53.0323C6.1576 58.3313 8.85784 61.5057 13.3023 61.5057C14.4521 61.5057 15.7441 61.2881 17.1265 60.8657C17.1782 60.8401 22.3203 59.2273 23.496 58.7921C24.943 58.2417 27.4753 56.501 28.5347 54.3634C28.806 53.8131 29.1419 53.1987 29.4003 52.7251L29.4262 52.6611C29.5554 52.4435 29.6458 52.2643 29.6975 52.1619C29.7879 51.9699 30.1626 51.3555 30.8861 51.3555C31.3642 51.3555 31.9197 51.6243 32.5269 52.1619C33.8706 53.3651 35.5243 53.9794 37.4235 53.9794C38.4571 53.9794 39.3615 53.7619 40.1625 53.5699L40.2917 53.5315C40.6664 53.4419 41.4804 53.0835 43.2504 52.5075C50.2658 50.0627 66.3769 44.8149 89.2966 40.143C103.586 37.2247 131.674 31.964 160.859 33.1672C165.536 33.3592 169.064 28.9945 167.823 24.5274L164.852 13.8525Z" stroke="#F3AF30" stroke-width="2.11399" stroke-miterlimit="10"/>
<path d="M166.66 24.1303L163.883 14.1466C162.965 10.8059 160.213 8.27153 156.777 7.59314C147.927 5.85239 131.131 3.15166 111.183 3.06206C86.0407 2.95966 72.4103 4.64922 60.2528 5.78839C48.1082 6.94036 27.992 10.2939 27.992 10.2939C27.992 10.2939 24.7362 10.9723 22.6174 10.0379C20.4985 9.09071 19.2453 8.74511 16.0412 9.2187C12.85 9.67949 10.6148 11.1131 9.90426 12.5338C8.93527 14.4666 9.03863 17.3081 9.03863 18.972C9.03863 18.972 9.29702 33.4741 9.33578 37.6852C9.38746 41.909 8.62519 50.728 8.65103 52.4816C8.68979 55.5535 9.8655 61.0574 17.4365 58.715C17.4365 58.715 22.5786 57.0895 23.7026 56.6671C24.8266 56.2447 26.9972 54.7471 27.8111 53.096C28.2504 52.2128 28.8318 51.1888 28.9868 50.8816C29.5036 49.8577 31.377 47.8481 34.1289 50.0752C36.9325 52.3408 38.8705 51.8032 40.7051 51.3552C42.5785 50.8944 64.9943 43.4322 88.4567 38.6323C116.738 32.8597 143.405 30.8501 160.666 31.5925C164.697 31.7589 167.733 27.9958 166.66 24.1303Z" fill="#AEA3AA"/>
<path fill-rule="evenodd" clip-rule="evenodd" d="M108.831 2.83203C85.1751 2.83203 72.0227 4.45759 60.2528 5.55836C48.0952 6.71033 27.992 10.0638 27.992 10.0638C27.992 10.0638 24.7362 10.7422 22.6174 9.79505C20.4985 8.86067 19.2453 8.51508 16.0412 8.98867C12.85 9.44946 10.6148 10.883 9.90426 12.3038C8.93527 14.2365 9.03863 17.0781 9.03863 18.742C9.03863 18.742 9.29702 33.2312 9.33578 37.4551C9.38746 41.679 8.62519 50.498 8.65103 52.2515C8.68979 55.3235 9.8655 60.8145 17.4365 58.4722C17.4365 58.4722 22.5786 56.8594 23.7026 56.437C24.8266 56.0146 26.9972 54.5171 27.8111 52.8531C28.2504 51.9827 28.8318 50.946 28.9868 50.6388C29.5036 49.6148 31.377 47.6181 34.1289 49.8324C36.9325 52.0979 38.8705 51.5604 40.7051 51.1252C42.5785 50.6644 64.9944 43.2022 88.4697 38.4023C116.738 32.6297 143.405 30.6201 160.666 31.3497C164.697 31.5289 167.733 27.7658 166.66 23.9003L163.883 13.9165C162.952 10.5758 160.213 8.0415 156.777 7.36311C147.927 5.62236 131.131 2.92163 111.183 2.83203C110.472 2.83203 109.774 2.83203 109.09 2.83203H108.831Z" fill="url(#paint0_radial_402_8555)"/>
<path fill-rule="evenodd" clip-rule="evenodd" d="M85.9245 22.8503C84.9426 19.8424 81.9969 11.5226 80.847 8.29706C80.5757 7.52908 79.8134 7.02989 78.9866 7.09389L75.3044 7.37548C74.7489 7.42668 74.3871 7.98987 74.5809 8.50185C74.891 9.33383 75.3303 10.5114 75.6791 11.4842C77.4879 16.476 78.4956 19.0616 74.891 19.74C71.338 20.4183 70.5758 16.9496 68.8962 12.3674C68.5861 11.4842 68.276 10.5242 67.9272 9.48743C67.643 8.68105 66.8419 8.15626 65.9763 8.24586L61.9582 8.68105C61.4802 8.73225 61.1701 9.20583 61.3252 9.65382C61.5577 10.3066 61.7386 10.8826 61.9712 11.5866C63.5603 16.4248 64.5034 18.6648 65.0073 19.9832C66.0021 22.5687 69.7101 27.407 76.9711 25.6534C77.5525 25.5126 78.0822 25.3462 78.5602 25.1798C79.7101 24.719 80.0718 24.2326 80.1752 23.951C80.201 23.8871 80.2915 23.8871 80.3173 23.951C80.5111 24.4118 80.8987 25.4998 80.8599 26.639C80.847 27.2406 80.5628 28.2645 80.0589 28.6485C79.723 28.9685 79.2708 29.2373 78.6765 29.4165C77.3457 29.8133 76.17 29.3269 75.2398 28.3925C75.0331 28.1749 74.723 28.0853 74.4259 28.1493L69.3096 29.3141C68.8316 29.4293 68.5861 29.9541 68.8187 30.3765C70.2398 33.026 73.8832 36.6995 80.3561 35.1252C87.785 33.3204 87.1002 26.4854 85.9245 22.8503Z" fill="#682423"/>
<path fill-rule="evenodd" clip-rule="evenodd" d="M85.9245 22.8503C84.9426 19.8424 81.9969 11.5226 80.847 8.29706C80.5757 7.52908 79.8134 7.02989 78.9866 7.09389L75.3044 7.37548C74.7489 7.42668 74.3871 7.98987 74.5809 8.50185C74.891 9.33383 75.3303 10.5114 75.6791 11.4842C77.4879 16.476 78.4956 19.0616 74.891 19.74C71.338 20.4183 70.5758 16.9496 68.8962 12.3674C68.5861 11.4842 68.276 10.5242 67.9272 9.48743C67.643 8.68105 66.8419 8.15626 65.9763 8.24586L61.9582 8.68105C61.4802 8.73225 61.1701 9.20583 61.3252 9.65382C61.5577 10.3066 61.7386 10.8826 61.9712 11.5866C63.5603 16.4248 64.5034 18.6648 65.0073 19.9832C66.0021 22.5687 69.7101 27.407 76.9711 25.6534C77.5525 25.5126 78.0822 25.3462 78.5602 25.1798C79.7101 24.719 80.0718 24.2326 80.1752 23.9511C80.201 23.8871 80.2915 23.8871 80.3173 23.9511C80.5111 24.4118 80.8987 25.4998 80.8599 26.639C80.847 27.2406 80.5628 28.2645 80.0589 28.6485C79.723 28.9685 79.2708 29.2373 78.6765 29.4165C77.3457 29.8133 76.17 29.3269 75.2398 28.3925C75.0331 28.1749 74.723 28.0853 74.4259 28.1493L69.3096 29.3141C68.8316 29.4293 68.5861 29.9541 68.8187 30.3765C70.2398 33.026 73.8832 36.6995 80.3561 35.1252C87.785 33.3204 87.1002 26.4854 85.9245 22.8503Z" stroke="#682423" stroke-width="3.54849" stroke-miterlimit="10"/>
<path d="M165.575 20.4956L166.518 23.8235C167.578 27.5354 164.645 31.1961 160.743 31.0169C143.469 30.2106 116.415 32.4889 88.3921 38.0951C64.9039 42.8054 42.5138 50.3572 40.6404 50.818C38.7929 51.266 36.8679 51.8036 34.0643 49.5253C31.3123 47.3109 29.426 49.3205 28.9093 50.3444C28.7542 50.6516 28.1728 51.6756 27.7465 52.5588C26.9196 54.2099 24.762 55.7075 23.638 56.1299C22.5139 56.5523 17.3589 58.1778 17.3589 58.1778C11.0024 60.1362 9.15485 56.5779 8.71558 53.5571C9.28405 56.4627 11.2479 59.573 17.2814 57.7042C17.2814 57.7042 22.4235 56.0915 23.5475 55.6563C24.6715 55.2339 26.8421 53.7491 27.656 52.0852C28.0953 51.2148 28.6767 50.178 28.8317 49.8708C29.3485 48.8469 31.2348 46.8373 33.9738 49.0645C36.7774 51.33 38.7154 50.7924 40.55 50.3444C42.4363 49.8836 64.8005 42.2166 88.3146 37.6344C114.826 32.4633 141.583 29.9802 160.859 30.6713C164.541 30.7993 167.319 27.4074 166.428 23.8747C165.95 21.9804 165.575 20.4956 165.575 20.4956Z" fill="#CA7272"/>
<path fill-rule="evenodd" clip-rule="evenodd" d="M24.8007 35.9063C24.1418 36.0471 23.5734 35.6119 23.5346 34.9463L23.2633 29.468C23.2245 28.8024 23.5604 28.6616 23.9997 29.1608L28.3408 34.0759C28.78 34.5879 28.5992 35.1127 27.9403 35.2407L24.8007 35.9063ZM35.1366 30.2744C30.8085 25.3721 20.5501 15.2092 20.5501 15.2092C20.0721 14.7356 19.1419 14.4668 18.4829 14.5948L14.7104 15.3628C14.0515 15.4908 13.5605 16.1436 13.6251 16.8092C13.6251 16.8092 14.4907 22.313 14.8008 32.284C14.9946 38.1206 14.3486 51.2531 14.3486 51.2531C14.3098 51.9186 14.8137 52.3154 15.4597 52.1234L21.8163 50.3315C22.4623 50.1395 23.0566 49.4611 23.1212 48.7955L23.4442 45.7748C23.5088 45.1092 24.1031 44.418 24.7491 44.226L32.9531 41.8197C33.5991 41.6277 34.5035 41.8837 34.9557 42.3701L36.997 44.5716C37.4492 45.058 38.3536 45.314 38.9996 45.1348L44.8523 43.5349C45.5112 43.3685 45.6921 42.7925 45.2786 42.2677C45.2786 42.2677 40.6792 36.559 35.1366 30.2744Z" fill="#682423"/>
<path fill-rule="evenodd" clip-rule="evenodd" d="M24.8007 35.9063C24.1418 36.0471 23.5734 35.6119 23.5346 34.9463L23.2633 29.468C23.2245 28.8024 23.5604 28.6616 23.9997 29.1608L28.3408 34.0759C28.78 34.5879 28.5992 35.1127 27.9403 35.2407L24.8007 35.9063ZM35.1366 30.2744C30.8085 25.3721 20.5501 15.2092 20.5501 15.2092C20.0721 14.7356 19.1419 14.4668 18.4829 14.5948L14.7104 15.3628C14.0515 15.4908 13.5605 16.1436 13.6251 16.8092C13.6251 16.8092 14.4907 22.313 14.8008 32.284C14.9946 38.1206 14.3486 51.2531 14.3486 51.2531C14.3098 51.9186 14.8137 52.3154 15.4597 52.1234L21.8163 50.3315C22.4623 50.1395 23.0566 49.4611 23.1212 48.7955L23.4442 45.7748C23.5088 45.1092 24.1031 44.418 24.7491 44.226L32.9531 41.8197C33.5991 41.6277 34.5035 41.8837 34.9557 42.3701L36.997 44.5716C37.4492 45.058 38.3536 45.314 38.9996 45.1348L44.8523 43.5349C45.5112 43.3685 45.6921 42.7925 45.2786 42.2677C45.2786 42.2677 40.6792 36.559 35.1366 30.2744Z" stroke="#682423" stroke-width="3.54849" stroke-miterlimit="10"/>
<path fill-rule="evenodd" clip-rule="evenodd" d="M88.418 7.41453L89.1028 32.4251C89.1157 32.8859 89.5291 33.2315 89.9942 33.1547L94.0769 32.4763C94.697 32.3739 95.1622 31.8363 95.1492 31.1963L94.8392 17.7439C94.8262 17.5263 95.1105 17.4495 95.2268 17.6287L102.707 30.1211C103.017 30.6459 103.612 30.9275 104.206 30.8379L108.353 30.2491C108.844 30.1851 109.103 29.6347 108.844 29.2124L95.188 6.87694C94.9167 6.42895 94.4128 6.16016 93.8831 6.18576L89.3482 6.42895C88.8185 6.45455 88.4051 6.88974 88.418 7.41453Z" fill="#682423"/>
<path fill-rule="evenodd" clip-rule="evenodd" d="M88.418 7.41453L89.1028 32.4251C89.1157 32.8859 89.5291 33.2315 89.9942 33.1547L94.0769 32.4763C94.697 32.3739 95.1622 31.8363 95.1492 31.1963L94.8392 17.7439C94.8262 17.5263 95.1105 17.4495 95.2268 17.6287L102.707 30.1211C103.017 30.6459 103.612 30.9275 104.206 30.8379L108.353 30.2491C108.844 30.1851 109.103 29.6347 108.844 29.2124L95.188 6.87694C94.9167 6.42895 94.4128 6.16016 93.8831 6.18576L89.3482 6.42895C88.8185 6.45455 88.4051 6.88974 88.418 7.41453Z" stroke="#682423" stroke-width="3.54849" stroke-miterlimit="10"/>
<path fill-rule="evenodd" clip-rule="evenodd" d="M24.8007 35.9063C24.1418 36.0471 23.5734 35.6119 23.5346 34.9463L23.2633 29.468C23.2245 28.8024 23.5604 28.6616 23.9997 29.1608L28.3408 34.0759C28.78 34.5879 28.5992 35.1127 27.9403 35.2407L24.8007 35.9063ZM35.1366 30.2744C30.8085 25.3721 20.5501 15.2092 20.5501 15.2092C20.0721 14.7356 19.1419 14.4668 18.4829 14.5948L14.7104 15.3628C14.0515 15.4908 13.5605 16.1436 13.6251 16.8092C13.6251 16.8092 14.4907 22.313 14.8008 32.284C14.9946 38.1206 14.3486 51.2531 14.3486 51.2531C14.3098 51.9186 14.8137 52.3154 15.4597 52.1234L21.8163 50.3315C22.4623 50.1395 23.0566 49.4611 23.1212 48.7955L23.4442 45.7748C23.5088 45.1092 24.1031 44.418 24.7491 44.226L32.9531 41.8197C33.5991 41.6277 34.5035 41.8837 34.9557 42.3701L36.997 44.5716C37.4492 45.058 38.3536 45.314 38.9996 45.1348L44.8523 43.5349C45.5112 43.3685 45.6921 42.7925 45.2786 42.2677C45.2786 42.2677 40.6792 36.559 35.1366 30.2744Z" fill="#682423"/>
<path fill-rule="evenodd" clip-rule="evenodd" d="M24.8007 35.9063C24.1418 36.0471 23.5734 35.6119 23.5346 34.9463L23.2633 29.468C23.2245 28.8024 23.5604 28.6616 23.9997 29.1608L28.3408 34.0759C28.78 34.5879 28.5992 35.1127 27.9403 35.2407L24.8007 35.9063ZM35.1366 30.2744C30.8085 25.3721 20.5501 15.2092 20.5501 15.2092C20.0721 14.7356 19.1419 14.4668 18.4829 14.5948L14.7104 15.3628C14.0515 15.4908 13.5605 16.1436 13.6251 16.8092C13.6251 16.8092 14.4907 22.313 14.8008 32.284C14.9946 38.1206 14.3486 51.2531 14.3486 51.2531C14.3098 51.9186 14.8137 52.3154 15.4597 52.1234L21.8163 50.3315C22.4623 50.1395 23.0566 49.4611 23.1212 48.7955L23.4442 45.7748C23.5088 45.1092 24.1031 44.418 24.7491 44.226L32.9531 41.8197C33.5991 41.6277 34.5035 41.8837 34.9557 42.3701L36.997 44.5716C37.4492 45.058 38.3536 45.314 38.9996 45.1348L44.8523 43.5349C45.5112 43.3685 45.6921 42.7925 45.2786 42.2677C45.2786 42.2677 40.6792 36.559 35.1366 30.2744Z" stroke="#682423" stroke-width="3.54849" stroke-miterlimit="10"/>
<path fill-rule="evenodd" clip-rule="evenodd" d="M36.39 11.9198C35.7182 12.0222 35.421 12.5854 35.7311 13.1742C35.7311 13.1742 38.9481 19.5356 42.2168 27.7914C44.5812 33.7433 47.0876 41.5767 47.0876 41.5767C47.2943 42.2038 47.992 42.5878 48.638 42.4086L53.3408 41.1671C53.9868 41.0007 54.3485 40.3479 54.1418 39.7079L51.1573 30.5817C50.9506 29.9418 51.209 29.7626 51.7387 30.185L61.8162 38.1591C62.3459 38.5687 63.302 38.7735 63.948 38.5943L69.6456 37.0712C70.2916 36.892 70.395 36.4056 69.8782 35.9832L56.6353 25.2187C56.1186 24.7963 55.8343 23.9259 56.0152 23.2859C56.0152 23.2859 57.0746 19.574 57.6302 17.0525C58.1986 14.4926 59.1547 10.3455 59.1547 10.3455C59.2968 9.70549 58.8705 9.2191 58.2116 9.2703L52.5268 9.75669C51.855 9.82069 51.1832 10.3839 51.0152 11.0367L48.3538 21.2252C48.1858 21.8652 47.8499 21.8908 47.6044 21.2764C47.6044 21.2764 46.5321 18.6397 45.0721 15.3117C43.9998 12.8542 43.3409 11.971 43.3409 11.971C42.9404 11.4462 42.0747 11.0751 41.4158 11.1775L36.39 11.9198Z" fill="#682423"/>
<path fill-rule="evenodd" clip-rule="evenodd" d="M36.39 11.9198C35.7182 12.0222 35.421 12.5854 35.7311 13.1742C35.7311 13.1742 38.9481 19.5356 42.2168 27.7914C44.5812 33.7433 47.0876 41.5767 47.0876 41.5767C47.2943 42.2038 47.992 42.5878 48.638 42.4086L53.3408 41.1671C53.9868 41.0007 54.3485 40.3479 54.1418 39.7079L51.1573 30.5817C50.9506 29.9418 51.209 29.7626 51.7387 30.185L61.8162 38.1591C62.3459 38.5687 63.302 38.7735 63.948 38.5943L69.6456 37.0712C70.2916 36.892 70.395 36.4056 69.8782 35.9832L56.6353 25.2187C56.1186 24.7963 55.8343 23.9259 56.0152 23.2859C56.0152 23.2859 57.0746 19.574 57.6302 17.0525C58.1986 14.4926 59.1547 10.3455 59.1547 10.3455C59.2968 9.70549 58.8705 9.2191 58.2116 9.2703L52.5268 9.75669C51.855 9.82069 51.1832 10.3839 51.0152 11.0367L48.3538 21.2252C48.1858 21.8652 47.8499 21.8908 47.6044 21.2764C47.6044 21.2764 46.5321 18.6397 45.0721 15.3117C43.9998 12.8542 43.3409 11.971 43.3409 11.971C42.9404 11.4462 42.0747 11.0751 41.4158 11.1775L36.39 11.9198Z" stroke="#682423" stroke-width="3.54849" stroke-miterlimit="10"/>
<path fill-rule="evenodd" clip-rule="evenodd" d="M25.6665 34.6261C25.0075 34.7669 24.4391 34.3317 24.4003 33.6661L24.129 28.1878C24.0902 27.5223 24.4262 27.3815 24.8654 27.8935L29.1936 32.8085C29.6458 33.3077 29.4649 33.8325 28.806 33.9733L25.6665 34.6261ZM36.0023 29.007C31.6742 24.092 21.4158 13.929 21.4158 13.929C20.9378 13.4682 20.0076 13.1866 19.3487 13.3146L15.5761 14.0826C14.9172 14.2106 14.4262 14.8634 14.4908 15.529C14.4908 15.529 15.3564 21.0456 15.6665 31.0038C15.8603 36.8404 15.2143 49.9729 15.2143 49.9729C15.1885 50.6385 15.6794 51.0353 16.3254 50.8561L22.682 49.0513C23.328 48.8721 23.9223 48.1809 23.9869 47.5153L24.3099 44.4946C24.3745 43.829 24.9688 43.1379 25.6148 42.9459L33.8189 40.5395C34.4649 40.3475 35.3692 40.6035 35.8214 41.0899L37.8628 43.2915C38.315 43.7778 39.2193 44.0338 39.8653 43.8546L45.718 42.2675C46.3769 42.0883 46.5578 41.5123 46.1444 40.9875C46.1444 40.9875 41.5449 35.2917 36.0023 29.007Z" fill="#FEFEFE"/>
<path fill-rule="evenodd" clip-rule="evenodd" d="M37.023 10.8447C36.3512 10.9343 36.0541 11.5103 36.3512 12.0991C36.3512 12.0991 39.5812 18.4605 42.8499 26.7163C45.2142 32.6682 47.7206 40.5015 47.7206 40.5015C47.9274 41.1287 48.625 41.4999 49.271 41.3335L53.9609 40.092C54.6198 39.9256 54.9816 39.26 54.7749 38.6328L51.7904 29.4938C51.5837 28.8667 51.8421 28.6875 52.3718 29.1098L62.4492 37.084C62.979 37.4936 63.935 37.6856 64.581 37.5192L70.2787 35.9833C70.9246 35.8169 71.028 35.3305 70.5112 34.9081L57.2684 24.1308C56.7516 23.7212 56.4674 22.8508 56.6482 22.2108C56.6482 22.2108 57.7077 18.4861 58.2632 15.9774C58.8317 13.4047 59.7878 9.27037 59.7878 9.27037C59.9299 8.61758 59.5035 8.14399 58.8317 8.19519L53.1599 8.68158C52.4881 8.73278 51.8033 9.30876 51.6354 9.94875L48.9868 20.1501C48.8188 20.7901 48.4829 20.8029 48.2374 20.1885C48.2374 20.1885 47.1651 17.5645 45.7052 14.2366C44.6199 11.7791 43.9739 10.8959 43.9739 10.8959C43.5734 10.3583 42.7078 9.99995 42.0489 10.1023L37.023 10.8447Z" fill="#FEFEFE"/>
<path d="M155.704 19.9704C155.937 20.8664 156.17 21.7624 156.415 22.6583C156.531 23.1191 156.945 23.4775 157.397 23.5159C157.526 23.5287 157.63 23.5415 157.707 23.5543C158.573 23.6183 159.128 23.4903 159.387 23.1831C159.645 22.8631 159.697 22.4279 159.542 21.8519C159.503 21.6984 159.464 21.532 159.425 21.3784C159.283 20.8024 158.986 20.3416 158.56 19.9832C158.133 19.6248 157.526 19.4072 156.738 19.3304C156.583 19.3176 156.415 19.292 156.26 19.2792C155.872 19.2408 155.601 19.5736 155.704 19.9704ZM154.245 11.9962C154.206 11.9834 154.167 11.9834 154.102 11.9706C153.728 11.9322 153.469 12.2522 153.573 12.6234C153.818 13.4682 154.064 14.3257 154.309 15.1833C154.451 15.6825 154.903 16.0665 155.407 16.1177L155.73 16.1561C156.35 16.2201 156.764 16.0921 156.971 15.7721C157.164 15.4521 157.19 15.0041 157.022 14.4153C156.984 14.2617 156.932 14.1082 156.893 13.9674C156.738 13.4042 156.441 12.9562 156.027 12.6234C155.614 12.3034 155.02 12.0858 154.245 11.9962ZM153.495 9.00108C154.412 9.15468 155.252 9.39787 156.002 9.74346C156.738 10.0763 157.397 10.4858 157.953 10.9466C158.508 11.4074 158.973 11.9066 159.335 12.457C159.697 13.0074 159.955 13.5706 160.097 14.1466C160.136 14.2617 160.162 14.3641 160.188 14.4793C160.407 15.3113 160.381 16.0281 160.136 16.6169C159.955 17.0905 159.606 17.4489 159.102 17.6793C158.973 17.7433 158.999 17.9481 159.154 18.012C159.916 18.3192 160.601 18.7928 161.182 19.4072C161.893 20.1496 162.371 21.02 162.617 22.0183C162.655 22.1591 162.694 22.2871 162.72 22.4279C162.901 23.1447 162.965 23.7847 162.914 24.3607C162.862 24.9495 162.668 25.4359 162.332 25.8326C161.996 26.2422 161.505 26.5494 160.847 26.7414C160.201 26.9462 159.374 27.023 158.366 26.9718C157.927 26.9462 156.234 26.8694 154.994 26.8182C154.4 26.7798 153.857 26.3318 153.689 25.743C152.177 20.2264 150.666 14.7097 149.154 9.20588C149.025 8.74509 149.374 8.3483 149.839 8.4251C151.157 8.61709 153.34 8.97548 153.495 9.00108Z" fill="#682423"/>
<path d="M155.704 19.9704C155.937 20.8664 156.17 21.7624 156.415 22.6583C156.531 23.1191 156.945 23.4775 157.397 23.5159C157.526 23.5287 157.63 23.5415 157.707 23.5543C158.573 23.6183 159.128 23.4903 159.387 23.1831C159.645 22.8631 159.697 22.4279 159.542 21.8519C159.503 21.6984 159.464 21.532 159.425 21.3784C159.283 20.8024 158.986 20.3416 158.56 19.9832C158.133 19.6248 157.526 19.4072 156.738 19.3304C156.583 19.3176 156.415 19.292 156.26 19.2792C155.872 19.2408 155.601 19.5736 155.704 19.9704ZM154.245 11.9962C154.206 11.9834 154.167 11.9834 154.102 11.9706C153.728 11.9322 153.469 12.2522 153.573 12.6234C153.818 13.4682 154.064 14.3257 154.309 15.1833C154.451 15.6825 154.903 16.0665 155.407 16.1177L155.73 16.1561C156.35 16.2201 156.764 16.0921 156.971 15.7721C157.164 15.4521 157.19 15.0041 157.022 14.4153C156.984 14.2617 156.932 14.1082 156.893 13.9674C156.738 13.4042 156.441 12.9562 156.027 12.6234C155.614 12.3034 155.02 12.0858 154.245 11.9962ZM153.495 9.00108C154.412 9.15468 155.252 9.39787 156.002 9.74346C156.738 10.0763 157.397 10.4858 157.953 10.9466C158.508 11.4074 158.973 11.9066 159.335 12.457C159.697 13.0074 159.955 13.5706 160.097 14.1466C160.136 14.2617 160.162 14.3641 160.188 14.4793C160.407 15.3113 160.381 16.0281 160.136 16.6169C159.955 17.0905 159.606 17.4489 159.102 17.6793C158.973 17.7433 158.999 17.9481 159.154 18.012C159.916 18.3192 160.601 18.7928 161.182 19.4072C161.893 20.1496 162.371 21.02 162.617 22.0183C162.655 22.1591 162.694 22.2871 162.72 22.4279C162.901 23.1447 162.965 23.7847 162.914 24.3607C162.862 24.9495 162.668 25.4359 162.332 25.8326C161.996 26.2422 161.505 26.5494 160.847 26.7414C160.201 26.9462 159.374 27.023 158.366 26.9718C157.927 26.9462 156.234 26.8694 154.994 26.8182C154.4 26.7798 153.857 26.3318 153.689 25.743C152.177 20.2264 150.666 14.7097 149.154 9.20588C149.025 8.74509 149.374 8.3483 149.839 8.4251C151.157 8.61709 153.34 8.97548 153.495 9.00108Z" stroke="#682423" stroke-width="3.54849" stroke-miterlimit="10"/>
<path fill-rule="evenodd" clip-rule="evenodd" d="M29.7234 31.9768L24.7492 26.409C24.31 25.897 23.9741 26.0378 24.0128 26.7034L24.1291 28.3161V28.1881C24.0903 27.5226 24.4262 27.3818 24.8655 27.8937L29.1937 32.8088C29.6459 33.308 29.465 33.8328 28.8061 33.9736L27.7983 34.1784L27.8242 34.2168C28.4572 34.0376 29.1549 33.9224 29.5167 33.7816C30.2531 33.5896 30.3952 32.7832 29.7234 31.9768Z" fill="#E8DBE2"/>
<path fill-rule="evenodd" clip-rule="evenodd" d="M46.2737 41.3718L40.421 42.9589C39.7621 43.1381 38.8577 42.8821 38.4055 42.3957L36.3642 40.1942C35.912 39.7078 35.0076 39.4646 34.3616 39.6438L26.1575 42.0502C25.589 42.2165 25.0593 42.7925 24.9043 43.3813C25.111 43.1765 25.3565 43.0229 25.6149 42.9461L33.819 40.5398C34.465 40.3478 35.3693 40.6038 35.8215 41.0902L37.8629 43.2917C38.3151 43.7781 39.2195 44.0341 39.8654 43.8549L45.7181 42.2677C46.222 42.127 46.4545 41.7558 46.3383 41.3462C46.3124 41.359 46.2866 41.359 46.2737 41.3718Z" fill="#E8DBE2"/>
<path fill-rule="evenodd" clip-rule="evenodd" d="M23.2375 48.1558L16.881 49.9605C16.235 50.1397 15.7311 49.743 15.7699 49.0774C15.7699 49.0774 16.4029 35.9449 16.2221 30.1083C15.8991 20.1501 15.0334 14.6335 15.0334 14.6335C15.0205 14.5311 15.0334 14.4159 15.0464 14.3135C14.6717 14.5951 14.4391 15.0559 14.4908 15.5294C14.4908 15.5294 15.3564 21.0461 15.6665 31.0042C15.8603 36.8409 15.2143 49.9733 15.2143 49.9733C15.1885 50.6389 15.6794 51.0357 16.3254 50.8565L22.682 49.0518C23.2634 48.8854 23.7931 48.3222 23.9481 47.7334C23.7414 47.9254 23.4959 48.079 23.2375 48.1558Z" fill="#E8DBE2"/>
<path fill-rule="evenodd" clip-rule="evenodd" d="M70.4595 35.9191C70.4982 35.9063 70.537 35.8807 70.5757 35.8679V35.8551C70.6145 35.8423 70.6533 35.8167 70.6791 35.7911C70.6791 35.7783 70.692 35.7783 70.692 35.7655C70.7179 35.7399 70.7437 35.7143 70.7695 35.6887C70.7825 35.6503 70.8083 35.6247 70.8212 35.5863C70.8212 35.5863 70.8212 35.5863 70.8212 35.5735C70.8471 35.5095 70.8471 35.4327 70.8341 35.3687V35.3559C70.8212 35.3175 70.8083 35.2791 70.7954 35.2407C70.7437 35.2663 70.6791 35.2919 70.6274 35.3047L64.9298 36.8279C64.2838 37.0071 63.3277 36.8151 62.798 36.3927L52.2425 28.0601C51.7128 27.6377 51.4544 27.8169 51.5449 28.4441L51.7516 29.4425C51.7645 29.4425 51.7645 29.4425 51.7774 29.4425C51.5965 28.8537 51.8549 28.7001 52.3717 29.1097L62.4492 37.0711C62.9789 37.4935 63.935 37.6855 64.5939 37.5191L70.2786 35.9831C70.3303 35.9703 70.3819 35.9575 70.4207 35.9319C70.4336 35.9319 70.4465 35.9319 70.4595 35.9191Z" fill="#E8DBE2"/>
<path fill-rule="evenodd" clip-rule="evenodd" d="M36.3512 12.0988C36.3512 12.0988 39.5811 18.4603 42.8498 26.716C45.2142 32.6679 47.7206 40.5013 47.7206 40.5013C47.9273 41.1285 48.625 41.4997 49.271 41.3333L53.9609 40.0917C54.4389 39.9637 54.7619 39.5797 54.8136 39.1317C54.6844 39.2597 54.5164 39.3621 54.3097 39.4133L49.6198 40.6549C48.9609 40.8213 48.2762 40.4501 48.0694 39.8101C48.0694 39.8101 45.563 31.9895 43.1987 26.0377C39.917 17.7819 36.7 11.4204 36.7 11.4204C36.6354 11.2796 36.5966 11.126 36.5837 10.998C36.2478 11.2284 36.1315 11.6508 36.3512 12.0988Z" fill="#E8DBE2"/>
<path fill-rule="evenodd" clip-rule="evenodd" d="M49.0383 19.9453C49.1546 19.9069 49.258 19.7405 49.3355 19.4589L51.9711 9.34717C51.8161 9.52636 51.6998 9.73116 51.6352 9.94875L49.0383 19.9453Z" fill="#E8DBE2"/>
<path fill-rule="evenodd" clip-rule="evenodd" d="M86.5446 21.9163C85.5756 18.9084 82.617 10.5886 81.4671 7.3631C81.1958 6.59512 80.4336 6.10874 79.6196 6.15994L75.9375 6.45433C75.3819 6.49273 75.0201 7.05591 75.2139 7.5807C75.524 8.39988 75.9633 9.57745 76.3121 10.5502C78.1209 15.5549 79.1157 18.1404 75.524 18.8188C71.9711 19.4844 71.2088 16.0157 69.5292 11.4334C69.2062 10.563 68.9091 9.60305 68.5473 8.55347C68.276 7.74709 67.4621 7.22231 66.6093 7.32471L62.5784 7.74709C62.1003 7.79829 61.7903 8.27188 61.9582 8.71987C62.1778 9.37265 62.3716 9.94864 62.6042 10.6526C64.1804 15.4909 65.1365 17.7308 65.6404 19.0492C66.6352 21.6347 70.3303 26.4858 77.6041 24.7195C78.1726 24.5787 78.7023 24.4123 79.1932 24.2459C80.3431 23.7851 80.6919 23.2987 80.8082 23.0299C80.8341 22.9531 80.9245 22.9531 80.9503 23.0171C81.1312 23.4779 81.5188 24.5659 81.493 25.705C81.4801 26.3066 81.1958 27.3306 80.679 27.7146C80.356 28.0474 79.9038 28.3034 79.3095 28.4826C77.9788 28.8793 76.8031 28.393 75.8729 27.4586C75.6532 27.241 75.3561 27.1514 75.0589 27.2154L69.9297 28.3802C69.4517 28.4954 69.2191 29.0201 69.4388 29.4425C70.86 32.0921 74.5163 35.7656 80.9891 34.1912C88.418 32.3865 87.7203 25.5514 86.5446 21.9163Z" fill="#FEFEFE"/>
<path d="M156.027 19.1517C156.273 20.0477 156.505 20.9565 156.738 21.8524C156.854 22.3132 157.268 22.6716 157.72 22.71C157.849 22.7228 157.965 22.7356 158.03 22.7356C158.896 22.8124 159.464 22.6844 159.71 22.3772C159.968 22.0572 160.02 21.6093 159.878 21.0333C159.839 20.8797 159.8 20.7261 159.761 20.5725C159.606 19.9965 159.322 19.5357 158.896 19.1773C158.456 18.8189 157.849 18.6013 157.074 18.5245C156.906 18.4989 156.751 18.4861 156.583 18.4733C156.195 18.4349 155.924 18.7677 156.027 19.1517ZM154.567 11.1775C154.542 11.1775 154.49 11.1647 154.438 11.1647C154.051 11.1263 153.792 11.4463 153.896 11.8047C154.141 12.6623 154.387 13.5199 154.632 14.3774C154.774 14.8638 155.226 15.2478 155.743 15.3118C155.847 15.3246 155.95 15.3246 156.053 15.3374C156.673 15.4014 157.087 15.2862 157.294 14.9662C157.5 14.6462 157.513 14.1854 157.345 13.5967C157.306 13.4559 157.268 13.3023 157.229 13.1615C157.061 12.5855 156.777 12.1375 156.363 11.8175C155.937 11.4847 155.343 11.2799 154.567 11.1775ZM153.818 8.1952C154.748 8.3488 155.575 8.59199 156.325 8.93758C157.074 9.27037 157.72 9.66716 158.275 10.1407C158.844 10.6015 159.296 11.1007 159.658 11.6511C160.02 12.2015 160.278 12.7647 160.433 13.3407C160.459 13.4559 160.485 13.5583 160.511 13.6735C160.73 14.5054 160.717 15.2222 160.472 15.811C160.278 16.2846 159.929 16.6302 159.438 16.8606C159.296 16.9246 159.322 17.1294 159.477 17.1934C160.252 17.5134 160.924 17.9741 161.518 18.6013C162.216 19.3437 162.694 20.2141 162.952 21.2125C162.978 21.3405 163.017 21.4813 163.056 21.6221C163.237 22.326 163.301 22.9788 163.237 23.5548C163.185 24.1308 162.991 24.63 162.655 25.0268C162.319 25.4363 161.828 25.7435 161.182 25.9355C160.536 26.1403 159.71 26.2171 158.689 26.1531C158.25 26.1275 156.557 26.0635 155.317 25.9995C154.723 25.9739 154.18 25.5259 154.025 24.9372C152.513 19.4205 151.002 13.9039 149.49 8.39999C149.361 7.93921 149.697 7.54242 150.175 7.60642C151.48 7.81121 153.663 8.1696 153.818 8.1952Z" fill="#FEFEFE"/>
<path d="M152.1 26.0759L151.454 23.9512C151.286 23.3624 150.756 22.9528 150.136 22.94L145.924 22.7992C145.614 22.7992 145.343 22.5816 145.265 22.2872L144.464 19.4201C144.387 19.1129 144.619 18.8185 144.942 18.8313L149.141 18.9849C149.593 18.9977 149.929 18.5625 149.813 18.1401L149.245 16.1946C149.103 15.7338 148.702 15.401 148.224 15.3754L143.805 15.0938C143.457 15.0682 143.146 14.825 143.043 14.4794L142.281 11.8555C142.203 11.5739 142.423 11.3051 142.72 11.3307L146.816 11.6891C147.358 11.7403 147.785 11.2283 147.643 10.7035L147.152 9.03958C146.984 8.4636 146.48 8.02841 145.873 7.96441L137.811 6.95324C137.358 6.88924 136.997 7.31163 137.126 7.73402L142.526 26.3319C142.643 26.7287 143.017 26.9975 143.444 26.9975L151.519 26.8567C151.919 26.8439 152.216 26.4599 152.1 26.0759Z" fill="#682423"/>
<path d="M152.1 26.0759L151.454 23.9512C151.286 23.3624 150.756 22.9528 150.136 22.94L145.924 22.7992C145.614 22.7992 145.343 22.5816 145.265 22.2872L144.464 19.4201C144.387 19.1129 144.619 18.8185 144.942 18.8313L149.141 18.9849C149.593 18.9977 149.929 18.5625 149.813 18.1401L149.245 16.1946C149.103 15.7338 148.702 15.401 148.224 15.3754L143.805 15.0938C143.457 15.0682 143.146 14.825 143.043 14.4794L142.281 11.8555C142.203 11.5739 142.423 11.3051 142.72 11.3307L146.816 11.6891C147.358 11.7403 147.785 11.2283 147.643 10.7035L147.152 9.03958C146.984 8.4636 146.48 8.02841 145.873 7.96441L137.811 6.95324C137.358 6.88924 136.997 7.31163 137.126 7.73402L142.526 26.3319C142.643 26.7287 143.017 26.9975 143.444 26.9975L151.519 26.8567C151.919 26.8439 152.216 26.4599 152.1 26.0759Z" stroke="#682423" stroke-width="3.54849" stroke-miterlimit="10"/>
<path fill-rule="evenodd" clip-rule="evenodd" d="M89.051 6.6465L89.4257 31.4651C89.4257 31.9386 89.865 32.297 90.343 32.2202L94.1027 31.5931C94.8908 31.4651 95.4722 30.7739 95.4593 29.9803L95.1621 16.9374C95.1492 16.6942 95.4851 16.5918 95.6014 16.8094L102.94 29.0459C103.302 29.6475 103.986 29.9803 104.697 29.8779L108.495 29.3403C109.077 29.2635 109.374 28.6235 109.077 28.1371L95.7435 5.85292C95.5239 5.46893 95.0975 5.25134 94.6582 5.27693L90.1363 5.50733C89.5161 5.53293 89.0381 6.04491 89.051 6.6465Z" fill="#FEFEFE"/>
<path d="M152.423 25.2697L151.79 23.145C151.609 22.5562 151.079 22.1466 150.459 22.121L146.247 21.993C145.937 21.9802 145.679 21.7754 145.588 21.481L144.8 18.6139C144.71 18.3067 144.955 18.0123 145.265 18.0251L149.464 18.1659C149.916 18.1915 150.265 17.7563 150.136 17.3211L149.567 15.3756C149.438 14.9276 149.025 14.5948 148.547 14.5692L144.128 14.2748C143.779 14.2492 143.469 14.0188 143.379 13.6732L142.604 11.0365C142.526 10.7677 142.759 10.4861 143.043 10.5117L147.138 10.8829C147.694 10.9341 148.12 10.4221 147.965 9.89733L147.487 8.23337C147.319 7.65739 146.815 7.2222 146.208 7.1454L138.133 6.13423C137.681 6.08303 137.319 6.49262 137.449 6.92781L142.849 25.5129C142.965 25.9225 143.34 26.1913 143.766 26.1913L151.854 26.0377C152.255 26.0377 152.539 25.6537 152.423 25.2697Z" fill="#FEFEFE"/>
<path d="M140.472 26.5757L134.658 7.46578C134.516 6.96659 134.064 6.6082 133.534 6.557L130.73 6.31381C130.407 6.28821 130.175 6.5826 130.265 6.88979L132.694 14.8896C132.707 14.9024 132.707 14.9152 132.707 14.9408C132.798 15.6448 132.487 16.6687 131.092 16.8479C129.206 17.0783 128.185 15.824 127.953 15.1712C127.759 14.6464 126.092 9.12974 125.433 6.88979C125.265 6.33941 124.761 5.94262 124.18 5.91702C123.133 5.87862 122.177 5.81462 121.273 5.77622C120.898 5.76342 120.614 6.10902 120.717 6.46741C121.338 8.55375 122.565 12.688 123.456 15.824C124.826 20.7006 131.066 21.763 134.18 20.2782C134.219 20.2526 134.27 20.227 134.309 20.2014L136.363 26.9085C136.454 27.1901 136.712 27.3693 136.996 27.3565L140.02 27.2157C140.343 27.1901 140.575 26.8829 140.472 26.5757Z" fill="#682423"/>
<path d="M140.472 26.5757L134.658 7.46578C134.516 6.96659 134.064 6.6082 133.534 6.557L130.73 6.31381C130.407 6.28821 130.175 6.5826 130.265 6.88979L132.694 14.8896C132.707 14.9024 132.707 14.9152 132.707 14.9408C132.798 15.6448 132.487 16.6687 131.092 16.8479C129.206 17.0783 128.185 15.824 127.953 15.1712C127.759 14.6464 126.092 9.12974 125.433 6.88979C125.265 6.33941 124.761 5.94262 124.18 5.91702C123.133 5.87862 122.177 5.81462 121.273 5.77622C120.898 5.76342 120.614 6.10902 120.717 6.46741C121.338 8.55375 122.565 12.688 123.456 15.824C124.826 20.7006 131.066 21.763 134.18 20.2782C134.219 20.2526 134.27 20.227 134.309 20.2014L136.363 26.9085C136.454 27.1901 136.712 27.3693 136.996 27.3565L140.02 27.2157C140.343 27.1901 140.575 26.8829 140.472 26.5757Z" stroke="#682423" stroke-width="3.54849" stroke-miterlimit="10"/>
<path d="M140.808 25.7562L134.994 6.65911C134.839 6.14713 134.387 5.78874 133.857 5.75034L131.054 5.50714C130.744 5.48154 130.498 5.77594 130.588 6.07033L132.953 13.8397C133.03 14.1085 133.069 14.4029 133.017 14.6717C132.914 15.2861 132.475 15.9005 131.428 16.0285C129.542 16.2717 128.521 15.0173 128.276 14.3645C128.082 13.8269 126.415 8.32307 125.756 6.08313C125.601 5.53274 125.085 5.13595 124.503 5.11035C123.457 5.05915 122.501 5.00796 121.596 4.96956C121.222 4.94396 120.95 5.30235 121.054 5.64794C121.661 7.73428 122.888 11.8814 123.78 15.0173C125.162 19.894 131.402 20.9563 134.503 19.4588C134.555 19.4332 134.594 19.4076 134.645 19.382L136.7 26.1018C136.777 26.3706 137.035 26.5498 137.32 26.537L140.343 26.3962C140.679 26.3834 140.898 26.0634 140.808 25.7562Z" fill="#FEFEFE"/>
<path d="M116.674 24.604C116.299 24.6423 115.86 24.6551 115.446 24.6424C115.201 24.6424 114.981 24.476 114.904 24.2456L113.159 19.0873C113.082 18.8313 113.224 18.5625 113.482 18.4985C114.025 18.3577 114.839 18.1785 115.614 18.1273C117.436 18.0121 119.568 18.4857 120.071 20.9944C120.627 23.772 118.418 24.4376 116.674 24.604ZM119.606 14.9658C117.048 13.7626 114.012 13.7626 111.829 14.6458C111.751 14.6714 111.661 14.633 111.635 14.5562L108.87 6.41562C108.741 6.04443 108.392 5.78844 107.991 5.80124L103.444 5.85244C103.147 5.85244 102.94 6.14683 103.03 6.42842C104.115 9.76914 108.302 22.4536 110.382 28.7894C110.601 29.455 111.273 29.8774 111.971 29.7878L118.276 29.0198C119.503 28.8918 120.64 28.5462 121.518 27.9959C122.888 27.1639 123.831 25.9607 124.193 24.6936C125.537 19.9833 122.281 16.2202 119.606 14.9658Z" fill="#682423"/>
<path d="M116.674 24.604C116.299 24.6423 115.86 24.6552 115.446 24.6424C115.201 24.6424 114.981 24.476 114.904 24.2456L113.159 19.0873C113.082 18.8313 113.224 18.5625 113.482 18.4985C114.025 18.3577 114.839 18.1785 115.614 18.1273C117.436 18.0121 119.568 18.4857 120.071 20.9944C120.627 23.772 118.418 24.4376 116.674 24.604ZM119.606 14.9658C117.048 13.7626 114.012 13.7626 111.829 14.6458C111.751 14.6714 111.661 14.633 111.635 14.5562L108.87 6.41562C108.741 6.04443 108.392 5.78844 107.991 5.80124L103.444 5.85244C103.147 5.85244 102.94 6.14683 103.03 6.42842C104.115 9.76914 108.302 22.4536 110.382 28.7894C110.601 29.455 111.273 29.8774 111.971 29.7878L118.276 29.0198C119.503 28.8918 120.64 28.5462 121.518 27.9959C122.888 27.1639 123.831 25.9607 124.193 24.6936C125.537 19.9833 122.281 16.2202 119.606 14.9658Z" stroke="#682423" stroke-width="3.54849" stroke-miterlimit="10"/>
<path d="M116.713 23.6699C116.325 23.7083 115.886 23.6955 115.472 23.6699C115.227 23.6571 115.02 23.4907 114.943 23.2603L113.353 18.0508C113.276 17.7948 113.431 17.5388 113.689 17.4748C114.232 17.3596 115.046 17.206 115.834 17.1676C117.656 17.1036 119.813 17.9356 120.24 20.47C120.718 23.2603 118.457 23.5547 116.713 23.6699ZM120.046 14.0317C117.488 12.8286 114.439 12.8286 112.255 13.7117C112.178 13.7373 112.1 13.6989 112.074 13.6221L109.31 5.48154C109.18 5.11035 108.831 4.85436 108.431 4.86716L103.883 4.91836C103.586 4.91836 103.366 5.21275 103.47 5.49434C104.568 8.88625 108.87 21.9291 110.924 28.1626C111.08 28.6489 111.57 28.9561 112.1 28.9049L118.715 28.0858C119.943 27.9578 121.067 27.6122 121.958 27.0618C123.328 26.2298 124.258 25.0266 124.619 23.7595C125.976 19.0492 122.72 15.2861 120.046 14.0317Z" fill="#FEFEFE"/>
<path d="M153.896 11.8046C153.715 11.1902 154.219 10.5886 154.865 10.6526C154.904 10.6654 154.942 10.6654 154.981 10.6654C155.769 10.755 156.364 10.9726 156.777 11.3054C157.19 11.6254 157.475 12.0734 157.643 12.6494C157.681 12.7902 157.72 12.9438 157.759 13.0846C157.927 13.6734 157.914 14.1341 157.707 14.4541C157.63 14.5693 157.526 14.6589 157.397 14.7229C157.488 14.4285 157.475 14.0574 157.345 13.5966C157.307 13.4558 157.268 13.3022 157.216 13.1614C157.061 12.5854 156.777 12.1374 156.351 11.8174C155.937 11.4846 155.343 11.2798 154.568 11.1774C154.529 11.1774 154.49 11.1774 154.426 11.1646C154.051 11.1262 153.792 11.4462 153.896 11.8046Z" fill="#E8DBE2"/>
<path fill-rule="evenodd" clip-rule="evenodd" d="M76.3124 10.5505C77.4364 13.6992 78.2633 15.8879 77.8111 17.2447C78.9093 15.9903 78.0178 13.6096 76.6742 9.8977C76.3253 8.92493 75.8602 7.76016 75.576 6.92818C75.5372 6.81298 75.5114 6.72339 75.4726 6.63379C75.2013 6.83858 75.0721 7.22257 75.2013 7.58096C75.5114 8.40014 75.9507 9.57771 76.3124 10.5505Z" fill="#E8DBE2"/>
<path fill-rule="evenodd" clip-rule="evenodd" d="M81.351 33.5381C74.6327 35.1764 70.9635 31.1701 69.6586 28.5078C69.3743 28.7126 69.2581 29.1094 69.4389 29.4422C70.8601 32.0917 74.5035 35.7652 80.9763 34.1909C83.8962 33.4869 85.5499 32.0021 86.4285 30.2486C85.4853 31.7205 83.8962 32.9237 81.351 33.5381Z" fill="#E8DBE2"/>
<path fill-rule="evenodd" clip-rule="evenodd" d="M77.6043 24.7195C78.1857 24.5787 78.7025 24.4123 79.1934 24.2459C80.3433 23.7851 80.6921 23.2987 80.8084 23.0299C80.8342 22.9531 80.9247 22.9531 80.9505 23.0171C81.1314 23.4779 81.519 24.5659 81.4931 25.705C81.4802 26.0378 81.3898 26.4858 81.2347 26.8954C81.6353 26.4218 81.842 25.5898 81.8549 25.0523C81.8936 23.9131 81.5061 22.8251 81.3123 22.3643C81.2864 22.3003 81.196 22.3003 81.1701 22.3771C81.0668 22.6459 80.705 23.1323 79.5552 23.5931C79.0771 23.7595 78.5474 23.9259 77.966 24.0667C70.7051 25.833 66.9971 20.982 66.0023 18.3964C65.4984 17.0781 64.5553 14.8381 62.9661 9.99986C62.7077 9.21908 62.501 8.60469 62.2555 7.8623C61.9713 8.0415 61.8421 8.38709 61.9584 8.71988C62.178 9.37267 62.3718 9.94866 62.6044 10.6526C64.1806 15.4909 65.1366 17.7308 65.6405 19.0492C66.6353 21.6347 70.3304 26.4858 77.6043 24.7195Z" fill="#E8DBE2"/>
<path fill-rule="evenodd" clip-rule="evenodd" d="M90.8988 31.5671C90.4208 31.6439 89.9944 31.2855 89.9815 30.7991L89.6068 5.67334C89.2709 5.87813 89.0513 6.23653 89.0513 6.64611L89.4259 31.4647C89.4389 31.9383 89.8652 32.2966 90.3433 32.2198L94.1029 31.5927C94.581 31.5159 94.9815 31.2343 95.214 30.8503L90.8988 31.5671Z" fill="#E8DBE2"/>
<path fill-rule="evenodd" clip-rule="evenodd" d="M95.1362 16.4383C95.1362 16.0159 95.6918 15.8623 95.9114 16.2207L103.263 28.4443C103.625 29.0459 104.322 29.3787 105.02 29.2763L109.18 28.6875C109.115 29.0075 108.857 29.2891 108.495 29.3403L104.697 29.8779C103.986 29.9803 103.289 29.6475 102.927 29.0459L95.6013 16.8094C95.4721 16.5919 95.1492 16.6942 95.1492 16.9374L95.1362 16.4383Z" fill="#E8DBE2"/>
<path d="M122.345 26.4475C121.467 26.9851 120.33 27.3435 119.103 27.4715L112.475 28.2779C111.958 28.3419 111.467 28.0347 111.312 27.5483C109.271 21.3404 104.994 8.37437 103.87 4.91846C103.573 4.93126 103.379 5.22565 103.47 5.49444C104.568 8.88635 108.87 21.9292 110.924 28.1627C111.079 28.649 111.57 28.9562 112.1 28.8922L118.715 28.0859C119.942 27.9579 121.079 27.6123 121.958 27.0619C122.991 26.4347 123.767 25.6027 124.245 24.6939C123.78 25.3595 123.134 25.9611 122.345 26.4475Z" fill="#E8DBE2"/>
<path d="M113.25 17.7054C113.147 17.3086 113.405 16.8862 113.819 16.8222C114.529 16.707 115.511 16.579 116.222 16.5534C118.043 16.4766 120.253 17.475 120.627 19.8429C120.808 20.9181 120.589 21.6221 120.149 22.0829C120.317 21.6733 120.356 21.1357 120.24 20.4701C119.813 17.9358 117.656 17.1038 115.834 17.1678C115.059 17.2062 114.232 17.3598 113.689 17.475C113.431 17.539 113.276 17.795 113.353 18.051L113.25 17.7054Z" fill="#E8DBE2"/>
<path d="M132.953 13.8399C133.03 14.1087 133.069 14.4031 133.017 14.6719C133.004 14.7743 132.966 14.8767 132.927 14.9791C133.224 14.7231 133.379 14.4031 133.431 14.0831C133.482 13.8015 133.444 13.5199 133.366 13.2511L131.015 5.50732C130.718 5.52012 130.498 5.78892 130.588 6.07051L132.953 13.8399Z" fill="#E8DBE2"/>
<path d="M137.733 25.9483C137.449 25.9611 137.191 25.7819 137.1 25.5131L135.046 18.7933C135.007 18.8189 134.968 18.8445 134.917 18.8701C131.816 20.3676 125.576 19.3052 124.193 14.4286C123.289 11.2415 122.049 7.04317 121.441 4.98242C121.157 5.04642 120.963 5.35361 121.054 5.648C121.661 7.73435 122.888 11.8814 123.78 15.0174C125.162 19.894 131.402 20.9564 134.503 19.4588C134.555 19.4332 134.594 19.4076 134.645 19.3948L136.7 26.1019C136.777 26.3707 137.035 26.5499 137.32 26.5371L140.356 26.3963C140.666 26.3835 140.873 26.1019 140.808 25.8075L137.733 25.9483Z" fill="#E8DBE2"/>
<path d="M152.255 25.4746L144.18 25.6154C143.754 25.6282 143.379 25.3594 143.263 24.9499L137.811 6.18555C137.539 6.30074 137.358 6.60794 137.449 6.92793L142.849 25.513C142.978 25.9226 143.353 26.1914 143.767 26.1914L151.854 26.0378C152.19 26.0378 152.449 25.7562 152.449 25.4362C152.397 25.4618 152.332 25.4746 152.255 25.4746Z" fill="#E8DBE2"/>
<path d="M160.136 21.8521C160.381 21.5449 160.446 21.0969 160.291 20.5209C160.252 20.3673 160.213 20.2137 160.175 20.0601C160.02 19.5865 159.826 19.1897 159.4 18.8313C158.973 18.4729 158.456 18.153 157.617 18.0506C157.371 18.0122 157.1 17.9994 156.841 17.9738C156.299 17.9354 155.885 18.4345 156.015 18.9593V18.9721C156.027 18.6649 156.26 18.4345 156.583 18.4729C156.751 18.4857 156.906 18.4985 157.074 18.5241C157.862 18.6009 158.469 18.8185 158.896 19.1769C159.322 19.5353 159.606 19.9961 159.761 20.5721C159.8 20.7257 159.839 20.8793 159.878 21.0329C159.981 21.4425 159.981 21.7881 159.89 22.0569C159.994 22.0057 160.071 21.9417 160.136 21.8521Z" fill="#E8DBE2"/>
<path d="M161.596 25.4233C160.95 25.6281 160.123 25.6921 159.115 25.6409C158.676 25.6153 156.971 25.5513 155.743 25.4873C155.149 25.4617 154.594 25.0137 154.438 24.4249C152.927 18.9082 151.415 13.3916 149.904 7.88772L149.826 7.64453C149.555 7.75973 149.387 8.05412 149.477 8.39971C150.989 13.9036 152.513 19.4202 154.012 24.9369C154.18 25.5257 154.723 25.9737 155.317 25.9993C156.557 26.0632 158.25 26.14 158.689 26.1528C159.697 26.2168 160.537 26.14 161.183 25.9353C161.829 25.7433 162.32 25.4361 162.655 25.0265C162.733 24.9241 162.811 24.8217 162.875 24.7193C162.552 25.0265 162.126 25.2569 161.596 25.4233Z" fill="#E8DBE2"/>
<path d="M142.617 11.037C142.436 10.461 142.901 9.89785 143.521 9.94905L147.952 10.3586C147.836 10.6786 147.526 10.9218 147.139 10.8834L143.043 10.5122C142.759 10.4866 142.526 10.7682 142.617 11.037Z" fill="#E8DBE2"/>
<path d="M145.265 18.0253L149.477 18.1661C149.826 18.1789 150.097 17.9357 150.149 17.6157L145.64 17.4621C145.072 17.4493 144.632 17.9869 144.787 18.5373C144.761 18.2685 144.981 18.0125 145.265 18.0253Z" fill="#E8DBE2"/>
<path d="M52.9014 45.6979C65.6662 41.9092 115.136 28.252 157.061 30.5815C158.921 30.6839 160.498 31.9767 160.989 33.7558C161.415 35.3046 161.932 37.2117 162.423 39.0165C163.172 41.794 161.04 44.4948 158.146 44.4436C121.48 43.7908 79.2966 57.2304 57.3846 64.6926C53.7412 65.9342 49.9428 63.2591 49.904 59.432L49.8007 49.8706C49.7748 47.9507 51.041 46.2483 52.9014 45.6979Z" fill="#682423"/>
<path d="M52.9014 45.6979C65.6662 41.9092 115.136 28.252 157.061 30.5815C158.921 30.6839 160.498 31.9767 160.989 33.7558C161.415 35.3046 161.932 37.2117 162.423 39.0165C163.172 41.794 161.04 44.4948 158.146 44.4436C121.48 43.7908 79.2966 57.2304 57.3846 64.6926C53.7412 65.9342 49.9428 63.2591 49.904 59.432L49.8007 49.8706C49.7748 47.9507 51.041 46.2483 52.9014 45.6979Z" stroke="#5F2321" stroke-width="2.11399" stroke-miterlimit="10"/>
<path d="M52.9014 45.3909C65.6662 41.6022 115.136 27.9321 157.061 30.2745C158.921 30.3769 160.498 31.6696 160.989 33.4488C161.415 34.9976 161.932 36.9047 162.423 38.7095C163.172 41.487 161.04 44.1877 158.146 44.1365C121.493 43.4709 79.2966 56.9234 57.3846 64.3856C53.7412 65.6272 49.9428 62.952 49.904 59.1249L49.8007 49.5636C49.7748 47.6308 51.041 45.9413 52.9014 45.3909Z" fill="#682423"/>
<path d="M53.3535 44.6743C66.2604 40.8856 116.221 27.2539 158.521 29.6986C160.407 29.8138 161.996 31.1066 162.487 32.9114C162.914 34.4601 163.43 36.3929 163.921 38.2104C164.671 41.0008 162.513 43.7143 159.593 43.6631C122.591 42.9079 79.9813 56.3603 57.8496 63.8098C54.1675 65.0513 50.3432 62.3634 50.3045 58.4979L50.2269 48.8725C50.2011 46.927 51.4802 45.2246 53.3535 44.6743Z" fill="#F3AF30"/>
<path d="M159.503 42.9589C122.152 42.2294 80.2397 55.2338 58.2502 62.6192C54.258 63.9632 51.0409 61.1857 51.028 57.4866L50.9763 57.9986C50.9892 61.7105 54.2192 64.4368 58.1985 63.1312C80.2397 55.8994 122.177 42.5238 159.529 43.2661C161.738 43.3045 163.43 41.7814 163.482 39.6694C163.185 41.551 161.531 42.9973 159.503 42.9589Z" fill="#F8D286"/>
<path d="M52.1003 58.0498C52.2812 59.2274 52.8496 60.3537 53.7411 61.1345C54.6197 61.9281 55.7954 62.4145 56.984 62.3505C57.5783 62.3249 58.1468 62.1585 58.7152 61.9537L60.4207 61.3777L63.8444 60.2385C68.4051 58.7154 72.9916 57.2818 77.5911 55.8867C82.2035 54.5299 86.8288 53.2115 91.4928 52.0212L94.9812 51.1252C96.1569 50.8308 97.3196 50.5748 98.4954 50.2804L102.01 49.4612L105.524 48.6932C114.929 46.6581 124.425 45.0197 133.986 43.9318L137.578 43.535C138.766 43.4198 139.968 43.343 141.169 43.2406L144.774 42.959C145.963 42.8822 147.164 42.8566 148.379 42.7926L151.983 42.639C152.578 42.6006 153.185 42.6134 153.779 42.6134L155.588 42.6006H159.193C159.8 42.5878 160.407 42.6518 160.976 42.4598C161.544 42.2934 162.061 41.935 162.423 41.4614L162.448 41.487C162.087 41.9606 161.57 42.319 160.989 42.4982C160.407 42.703 159.787 42.6262 159.193 42.6518L155.588 42.6646L153.779 42.6774C153.185 42.6774 152.578 42.6774 151.983 42.7158L148.379 42.8822C147.177 42.9462 145.976 42.9846 144.774 43.0742L141.182 43.3686C139.981 43.471 138.779 43.5606 137.591 43.6758L133.999 44.0854C124.451 45.1989 114.968 46.8757 105.588 48.9364L102.061 49.7172L98.56 50.562C97.3972 50.8436 96.2215 51.1124 95.0587 51.4068L91.5703 52.3155C86.9192 53.5187 82.2939 54.8371 77.6815 56.181C73.0692 57.5506 68.4697 58.9458 63.909 60.4305L60.4723 61.5441L58.7669 62.1073C58.2114 62.2993 57.6041 62.4657 56.9969 62.4913C55.7566 62.5425 54.5551 62.0177 53.6765 61.1985C52.785 60.3793 52.2424 59.2402 52.0745 58.0626L52.1003 58.0498Z" fill="#F3AF30"/>
<path d="M159.516 41.2435C119.335 40.4627 78.8703 53.0064 59.1805 59.5342C57.1392 60.2126 55.0204 58.8046 54.8653 56.6799L54.3873 49.4865C54.2968 48.2577 55.072 47.1185 56.2607 46.7474C66.6869 43.4322 115.485 28.8534 158.741 31.4006C160.252 31.4901 161.48 32.6549 161.648 34.1397L162.113 38.4532C162.268 39.9635 161.053 41.2691 159.516 41.2435Z" fill="#AEA3AA"/>
<path d="M55.4596 45.7617C67.643 42.037 116.467 28.1494 158.805 30.6453C160.097 30.7221 161.195 31.5925 161.531 32.8341L162.862 37.6851C163.469 39.9251 161.738 42.1266 159.4 42.0754C121.338 41.397 79.1158 54.4271 58.6638 61.1981C55.9377 62.0941 53.0953 60.1486 52.992 57.2942L52.7077 49.6144C52.6431 47.8609 53.7671 46.2865 55.4596 45.7617Z" fill="#FEFEFE"/>
<path fill-rule="evenodd" clip-rule="evenodd" d="M148.521 30.7354C109.129 30.7354 67.966 42.7286 57.1004 46.1333C55.4725 46.6325 54.4131 48.1813 54.5165 49.8709L54.9945 56.8083C55.1237 58.6642 56.9971 59.9186 58.78 59.317C78.3535 52.8404 120.86 39.7335 159.464 40.8215C161.286 40.8727 162.629 39.1575 162.151 37.4168C161.751 36.0088 161.312 34.4473 160.976 33.2057C160.614 31.9513 159.49 31.0553 158.172 30.9913C154.994 30.8122 151.777 30.7354 148.56 30.7354C148.547 30.7354 148.534 30.7354 148.521 30.7354Z" fill="url(#paint1_radial_402_8555)"/>
<path d="M160.252 40.2325C119.891 39.439 79.2063 51.7778 59.4261 58.3057C57.824 58.8433 56.1574 58.0753 55.4468 56.6929C56.0282 58.3057 57.8369 59.2528 59.5682 58.6769C79.258 52.1362 119.762 39.7846 159.942 40.5653C160.769 40.5909 161.48 40.0277 161.958 39.439C161.493 39.823 160.911 40.2453 160.252 40.2325Z" fill="#7FBA78"/>
<path d="M65.3044 48.3346C64.9943 47.5922 63.3535 47.7714 62.6041 47.9634C60.6274 48.4882 59.8393 50.293 60.4982 51.8801C61.17 53.5185 63.1209 54.5168 65.1493 53.9537C65.8212 53.7617 67.3199 53.0321 66.971 52.2513C66.816 51.8801 66.325 51.6625 65.8858 51.7905C65.6661 51.8545 65.1106 52.3665 64.6455 52.4945C63.6119 52.7889 62.7204 52.1361 62.3845 51.3681C62.0486 50.5618 62.2294 49.6402 63.3018 49.3458C63.8961 49.1922 64.4517 49.3842 64.9168 49.2562C65.3431 49.141 65.4336 48.6546 65.3044 48.3346ZM72.4103 49.2818C72.9529 49.1282 73.095 48.8466 72.9012 48.3986C72.3715 47.1442 70.4594 45.9795 68.4826 46.4915C66.5576 46.9778 65.7824 48.7442 66.4284 50.3058C67.1519 52.0209 69.064 52.9041 71.1183 52.3409C72.4749 51.9697 73.7927 50.8945 73.5084 50.2418C73.3792 49.9218 72.9012 49.6786 72.5007 49.7938C72.0356 49.909 71.6609 50.7025 70.7307 50.9585C69.8651 51.1889 68.9736 51.0353 68.5343 50.3058C69.8263 49.9602 71.1183 49.6146 72.4103 49.2818ZM68.0563 49.2946C67.8883 48.629 68.2113 47.9634 69.0253 47.7458C69.8651 47.5282 70.5886 47.8994 70.9632 48.5394C69.9943 48.7826 69.0253 49.0386 68.0563 49.2946ZM82.5136 48.4626C82.5006 48.4114 82.4748 48.3602 82.449 48.309C81.5962 47.029 80.7177 45.7363 79.865 44.4563C79.6712 44.1747 79.1027 43.9187 78.4955 44.0723C77.9529 44.2131 77.6557 44.6355 77.6686 44.9555C77.7074 45.9411 77.7591 46.9266 77.8107 47.925C77.7978 47.925 77.7849 47.925 77.7849 47.925C77.0614 47.1058 76.3508 46.2867 75.6402 45.4547C75.4077 45.1987 74.8521 44.9811 74.2836 45.1219C73.6764 45.2627 73.3792 45.7363 73.4438 46.0563C73.7281 47.5154 73.9736 48.9874 74.2707 50.4594C74.2836 50.5106 74.2966 50.549 74.3224 50.6002C74.4904 51.0097 74.9813 51.2401 75.4723 51.1121C76.0795 50.9585 76.2087 50.5746 76.1183 50.1906C75.8857 49.2306 75.6402 48.2834 75.4206 47.3234C75.4206 47.3234 75.4335 47.3234 75.4464 47.3234C76.157 48.1938 76.8805 49.077 77.6169 49.9474C77.7978 50.165 78.1467 50.4082 78.7539 50.2418C79.374 50.0754 79.4516 49.7042 79.4386 49.4738C79.374 48.4242 79.2965 47.3874 79.219 46.3635C79.219 46.3635 79.2319 46.3635 79.2448 46.3507C79.7616 47.221 80.2913 48.0786 80.8211 48.9618C81.0407 49.2946 81.4283 49.5378 82.0097 49.3842C82.4877 49.2562 82.6815 48.8466 82.5136 48.4626ZM87.5652 45.4163C88.082 45.2883 88.2112 45.0195 88.0303 44.5843C87.5264 43.3811 85.7435 42.2292 83.9218 42.6644C82.1518 43.0867 81.4541 44.7379 82.0614 46.2355C82.7332 47.861 84.5032 48.757 86.3895 48.2834C87.6427 47.9634 88.883 46.9906 88.6117 46.3507C88.4825 46.0435 88.0303 45.8131 87.6686 45.9027C87.2293 46.0051 86.8805 46.7474 86.0277 46.9522C85.2526 47.1442 84.4128 46.9778 83.9864 46.2867C85.2009 45.9923 86.3895 45.6979 87.5652 45.4163ZM83.5471 45.3139C83.3663 44.6739 83.6763 44.0595 84.4257 43.8803C85.2267 43.6883 85.8727 44.0595 86.2215 44.6739C85.343 44.8787 84.4386 45.0963 83.5471 45.3139ZM88.1595 40.386C88.4567 41.1284 89.6324 41.1796 90.3171 41.026C91.0019 40.8724 91.945 40.322 91.6608 39.618C91.5574 39.362 91.2086 39.0805 90.9114 39.1316C90.1879 39.298 90.5497 39.9508 89.9425 40.0788C89.2448 40.2324 89.1285 39.5156 88.4308 39.6692C88.0562 39.7588 88.0432 40.1044 88.1595 40.386ZM94.8391 45.2755C94.3352 44.0083 93.8184 42.7284 93.3016 41.474C93.1078 40.9876 92.6427 40.7444 92.1776 40.8596C91.8804 40.9236 91.6737 41.1668 91.5574 41.474C91.1828 42.434 90.8081 43.4067 90.4463 44.3795C90.4205 44.3795 90.4205 44.3795 90.4205 44.3795C90.1492 43.6883 89.8649 42.9972 89.5807 42.2932C89.3998 41.8196 88.9347 41.5764 88.4437 41.6788C87.9657 41.794 87.759 42.1908 87.9399 42.6644C88.4567 43.9571 88.9735 45.2499 89.4902 46.5427C89.684 47.029 90.1492 47.2722 90.6272 47.157C90.9244 47.093 91.0794 46.9138 91.1698 46.6707C91.5703 45.6211 91.9709 44.5715 92.3584 43.5475C92.3584 43.5475 92.3714 43.5347 92.3843 43.5347C92.6685 44.2387 92.9528 44.9555 93.237 45.6595C93.4437 46.1331 93.8959 46.3763 94.3739 46.2611C94.852 46.1587 95.0329 45.7619 94.8391 45.2755ZM100.95 43.8931C100.446 42.6388 99.9553 41.3844 99.4643 40.1428C99.2835 39.682 98.8442 39.426 98.3791 39.5284C97.9269 39.618 97.7202 40.002 97.9011 40.4628C98.0561 40.8596 98.2111 41.2308 98.3662 41.6148C97.6814 41.7684 96.9967 41.9092 96.3119 42.05C96.1698 41.666 96.0148 41.282 95.8597 40.8852C95.6788 40.4116 95.2396 40.1684 94.7615 40.2708C94.2964 40.3604 94.0768 40.7444 94.2706 41.218C94.7615 42.4852 95.2525 43.7523 95.7434 45.0323C95.9372 45.5187 96.3765 45.7619 96.8545 45.6595C97.3197 45.5571 97.5264 45.1603 97.3455 44.6867C97.1646 44.2131 96.9837 43.7523 96.8029 43.2915C97.4747 43.1507 98.1595 43.01 98.8442 42.8564C99.0251 43.3171 99.206 43.7779 99.3868 44.2387C99.5677 44.7123 100.02 44.9555 100.472 44.8531C100.937 44.7507 101.131 44.3667 100.95 43.8931ZM102.849 42.562C102.526 41.7172 103.728 41.5636 104.658 41.3716C104.684 41.4484 104.71 41.5252 104.736 41.5892C104.994 42.2548 104.787 42.7156 103.999 42.882C103.521 42.9844 103.004 42.946 102.849 42.562ZM105.382 43.2275C105.666 43.6371 105.976 43.6627 106.299 43.5987C106.738 43.4963 106.906 43.0995 106.738 42.69C106.351 41.6916 105.95 40.6932 105.562 39.6948C105.175 38.6965 104.193 38.3125 102.772 38.5813C101.867 38.7605 100.821 39.4772 101.041 40.0404C101.157 40.322 101.48 40.6036 101.945 40.5012C102.358 40.4244 102.333 39.9124 103.224 39.7332C103.663 39.6564 103.935 39.6948 104.038 39.9636C104.09 40.0916 104.141 40.2196 104.193 40.3476C102.772 40.6292 100.756 41.2564 101.376 42.882C101.816 43.9827 102.927 44.3795 104.167 44.1107C104.684 43.9955 105.252 43.6627 105.382 43.2275ZM109.477 39.9252C109.296 39.9636 109.128 39.9892 108.96 40.0276C108.547 40.1044 108.159 39.9252 108.004 39.5284C107.849 39.1188 108.069 38.8501 108.495 38.7733C108.663 38.7349 108.831 38.7093 108.999 38.6709C109.154 39.0933 109.322 39.5156 109.477 39.9252ZM108.237 40.898C107.991 41.3588 107.746 41.8196 107.488 42.2932C107.397 42.4468 107.397 42.5876 107.449 42.7156C107.578 43.0483 107.991 43.3299 108.405 43.2531C108.573 43.2147 108.78 43.1123 108.87 42.9204C109.167 42.2292 109.477 41.538 109.787 40.8468C109.787 40.8468 109.8 40.834 109.813 40.834C109.955 41.2436 110.11 41.6532 110.265 42.0628C110.446 42.5236 110.873 42.7668 111.299 42.69C111.738 42.6004 111.932 42.2292 111.764 41.7812C111.299 40.578 110.86 39.3748 110.407 38.1845C110.239 37.7365 109.813 37.4933 109.374 37.5701C108.857 37.6597 108.353 37.7493 107.836 37.8389C106.648 38.0565 106.079 38.6837 106.493 39.7972C106.764 40.5268 107.488 40.8596 108.237 40.898ZM115.265 41.1156C115.433 41.5764 115.834 41.8324 116.26 41.7684C116.686 41.6916 116.88 41.346 116.725 40.8852C116.57 40.4116 116.389 39.938 116.234 39.4644C116.234 39.4644 116.234 39.4644 116.247 39.4644C117.035 39.9636 117.823 40.45 118.624 40.9492C118.922 41.1284 119.193 41.2948 119.464 41.2436C119.826 41.1796 120.033 40.8596 119.903 40.5012C119.852 40.3476 119.748 40.194 119.568 40.0788C118.805 39.6436 118.03 39.2084 117.268 38.7733C117.565 38.2741 117.849 37.7877 118.159 37.2885C118.276 37.1093 118.314 36.9173 118.237 36.7253C118.133 36.4309 117.785 36.1621 117.436 36.2133C117.229 36.2389 117.009 36.3797 116.893 36.5973C116.57 37.2373 116.221 37.8773 115.898 38.5173C115.756 38.1077 115.614 37.6981 115.472 37.2885C115.317 36.8405 114.904 36.5845 114.477 36.6485C114.064 36.7125 113.857 37.0453 114.012 37.4933C114.425 38.7093 114.852 39.9124 115.265 41.1156ZM121.144 35.6245C119.658 35.8165 119.012 37.1733 119.464 38.5301C119.916 39.9252 121.338 40.9748 122.862 40.77C124.374 40.5524 124.981 39.2468 124.516 37.8645C124.064 36.5333 122.617 35.4453 121.144 35.6245ZM121.557 36.8405C122.32 36.7381 122.901 37.4165 123.121 38.0437C123.327 38.6837 123.211 39.4388 122.449 39.5412C121.686 39.6436 121.092 38.9781 120.885 38.3381C120.666 37.6981 120.769 36.9429 121.557 36.8405ZM132.048 38.9653C132.022 38.9141 132.009 38.8757 131.996 38.8373C131.376 37.6597 130.756 36.4949 130.162 35.3173C130.033 35.0742 129.593 34.7926 129.128 34.8438C128.689 34.895 128.456 35.2022 128.443 35.4581C128.443 36.2773 128.431 37.1093 128.431 37.9285C128.418 37.9285 128.418 37.9285 128.418 37.9285C127.901 37.1605 127.371 36.3925 126.854 35.6245C126.699 35.3813 126.273 35.1382 125.834 35.1766C125.369 35.2277 125.123 35.5733 125.149 35.8421C125.291 37.0709 125.459 38.3125 125.601 39.5668C125.614 39.6052 125.614 39.6436 125.627 39.6948C125.743 40.0532 126.118 40.2964 126.493 40.258C126.958 40.2068 127.087 39.9124 127.035 39.5796C126.893 38.7605 126.751 37.9541 126.609 37.1349H126.622C127.152 37.9413 127.668 38.7605 128.198 39.5668C128.327 39.7716 128.586 40.0148 129.064 39.9508C129.542 39.8996 129.619 39.6052 129.619 39.4132C129.606 38.5429 129.58 37.6725 129.58 36.8149C129.593 36.8149 129.593 36.8149 129.606 36.8149C129.968 37.5957 130.343 38.3765 130.717 39.1572C130.872 39.4772 131.157 39.7076 131.609 39.6564C131.984 39.618 132.151 39.3108 132.048 38.9653ZM136.983 38.4021C136.635 37.2757 136.286 36.1621 135.95 35.0486C135.821 34.6262 135.459 34.3574 135.071 34.3958C134.064 34.4726 133.056 34.5494 132.035 34.639C131.635 34.6646 131.441 34.9718 131.57 35.3941C131.906 36.5333 132.268 37.6597 132.604 38.7989C132.733 39.234 133.108 39.5028 133.508 39.4644C133.883 39.4388 134.077 39.1188 133.947 38.6837C133.637 37.6853 133.34 36.6869 133.043 35.7013C133.611 35.6501 134.18 35.6117 134.761 35.5605C135.058 36.5461 135.356 37.5317 135.666 38.5301C135.808 38.9525 136.17 39.2212 136.544 39.1828C136.932 39.1444 137.113 38.8373 136.983 38.4021ZM138.65 37.4805C138.431 36.6997 139.438 36.7125 140.213 36.6613C140.226 36.7381 140.252 36.8021 140.265 36.8661C140.446 37.4805 140.239 37.8389 139.567 37.8901C139.167 37.9157 138.741 37.8261 138.65 37.4805ZM140.704 38.3637C140.924 38.7605 141.182 38.8117 141.454 38.7861C141.828 38.7605 141.996 38.4277 141.88 38.0565C141.609 37.1477 141.337 36.2389 141.066 35.3173C140.808 34.4214 140.007 33.9606 138.818 34.0246C138.043 34.063 137.126 34.575 137.268 35.0742C137.345 35.3429 137.591 35.6117 138.004 35.5861C138.353 35.5605 138.366 35.1254 139.115 35.0742C139.477 35.0486 139.71 35.1254 139.774 35.3813C139.813 35.4837 139.839 35.5989 139.89 35.7141C138.676 35.7909 136.971 36.0853 137.384 37.5573C137.681 38.5685 138.586 39.0421 139.645 38.9653C140.071 38.9397 140.575 38.7221 140.704 38.3637ZM146.79 37.8261C146.467 36.7125 146.157 35.5989 145.846 34.4982C145.73 34.0886 145.381 33.8198 145.033 33.8326C144.658 33.8454 144.477 34.1398 144.593 34.5494C144.684 34.8822 144.787 35.2278 144.877 35.5605C144.335 35.5861 143.779 35.6117 143.237 35.6373C143.146 35.2917 143.056 34.9462 142.965 34.6134C142.849 34.191 142.5 33.9222 142.126 33.935C141.751 33.9478 141.57 34.2422 141.686 34.6646C141.983 35.7781 142.281 36.9045 142.591 38.0181C142.707 38.4405 143.069 38.7221 143.43 38.6965C143.805 38.6837 143.999 38.3893 143.883 37.9669C143.766 37.5573 143.663 37.1477 143.547 36.7381C144.076 36.7125 144.632 36.6869 145.188 36.6613C145.291 37.0709 145.407 37.4677 145.523 37.8901C145.653 38.2997 145.989 38.5685 146.35 38.5557C146.725 38.5301 146.906 38.2357 146.79 37.8261ZM151.609 37.6597C151.299 36.5717 150.989 35.4837 150.678 34.3958C150.562 33.9862 150.226 33.7174 149.877 33.7302C149.658 33.7302 149.477 33.8966 149.374 34.1142C149.025 34.831 148.702 35.5349 148.379 36.2517C148.366 36.2517 148.353 36.2517 148.353 36.2517C148.198 35.6629 148.03 35.0614 147.875 34.4726C147.759 34.0502 147.423 33.7942 147.048 33.807C146.686 33.807 146.505 34.0886 146.609 34.4982C146.906 35.5989 147.216 36.7125 147.526 37.8261C147.642 38.2357 147.978 38.5045 148.34 38.4917C148.56 38.4789 148.689 38.3765 148.766 38.1845C149.128 37.4165 149.49 36.6485 149.852 35.8933H149.865C150.045 36.4949 150.213 37.0965 150.381 37.7109C150.498 38.1205 150.821 38.3893 151.182 38.3765C151.531 38.3637 151.725 38.0821 151.609 37.6597ZM153.896 35.6885C153.753 35.7013 153.624 35.7013 153.482 35.7013C153.133 35.7013 152.836 35.4965 152.746 35.151C152.655 34.7798 152.836 34.5878 153.185 34.5878C153.314 34.5878 153.456 34.5878 153.598 34.575C153.689 34.9462 153.792 35.3173 153.896 35.6885ZM152.849 36.3157C152.616 36.6741 152.397 37.0325 152.164 37.3781C152.074 37.4933 152.061 37.6085 152.087 37.7237C152.164 38.0181 152.487 38.3125 152.823 38.2997C152.952 38.2997 153.146 38.2485 153.224 38.0949C153.508 37.5701 153.792 37.0325 154.089 36.4949H154.102C154.193 36.8661 154.309 37.2245 154.399 37.5829C154.503 37.9925 154.839 38.2613 155.188 38.2613C155.536 38.2485 155.73 37.9797 155.614 37.5701C155.317 36.4949 155.045 35.4325 154.761 34.3702C154.645 33.9734 154.322 33.7046 153.973 33.7046C153.547 33.7174 153.133 33.7174 152.72 33.7174C151.751 33.7174 151.247 34.1654 151.518 35.1638C151.686 35.8037 152.242 36.1877 152.849 36.3157Z" fill="#006F34"/>
<path d="M65.3044 48.3346C64.9943 47.5922 63.3535 47.7714 62.6041 47.9634C60.6274 48.4882 59.8393 50.293 60.4982 51.8801C61.17 53.5185 63.1209 54.5169 65.1493 53.9537C65.8212 53.7617 67.3199 53.0321 66.971 52.2513C66.816 51.8801 66.325 51.6625 65.8858 51.7905C65.6661 51.8545 65.1106 52.3665 64.6455 52.4945C63.6119 52.7889 62.7204 52.1361 62.3845 51.3681C62.0486 50.5618 62.2294 49.6402 63.3018 49.3458C63.8961 49.1922 64.4517 49.3842 64.9168 49.2562C65.3431 49.141 65.4336 48.6546 65.3044 48.3346ZM72.4103 49.2818C72.9529 49.1282 73.095 48.8466 72.9012 48.3986C72.3715 47.1442 70.4594 45.9795 68.4826 46.4915C66.5576 46.9778 65.7824 48.7442 66.4284 50.3058C67.1519 52.0209 69.064 52.9041 71.1183 52.3409C72.4749 51.9697 73.7927 50.8945 73.5084 50.2418C73.3792 49.9218 72.9012 49.6786 72.5007 49.7938C72.0356 49.909 71.6609 50.7025 70.7307 50.9585C69.8651 51.1889 68.9736 51.0353 68.5343 50.3058C69.8263 49.9602 71.1183 49.6146 72.4103 49.2818ZM68.0563 49.2946C67.8883 48.629 68.2113 47.9634 69.0253 47.7458C69.8651 47.5282 70.5886 47.8994 70.9632 48.5394C69.9943 48.7826 69.0253 49.0386 68.0563 49.2946ZM82.5136 48.4626C82.5006 48.4114 82.4748 48.3602 82.449 48.309C81.5962 47.029 80.7177 45.7363 79.865 44.4563C79.6712 44.1747 79.1027 43.9187 78.4955 44.0723C77.9529 44.2131 77.6557 44.6355 77.6686 44.9555C77.7074 45.9411 77.7591 46.9266 77.8107 47.925C77.7978 47.925 77.7849 47.925 77.7849 47.925C77.0614 47.1058 76.3508 46.2867 75.6402 45.4547C75.4077 45.1987 74.8521 44.9811 74.2836 45.1219C73.6764 45.2627 73.3792 45.7363 73.4438 46.0563C73.7281 47.5154 73.9736 48.9874 74.2707 50.4594C74.2836 50.5106 74.2966 50.549 74.3224 50.6002C74.4904 51.0097 74.9813 51.2401 75.4723 51.1121C76.0795 50.9585 76.2087 50.5746 76.1183 50.1906C75.8857 49.2306 75.6402 48.2834 75.4206 47.3234C75.4206 47.3234 75.4335 47.3234 75.4464 47.3234C76.157 48.1938 76.8805 49.077 77.6169 49.9474C77.7978 50.165 78.1467 50.4082 78.7539 50.2418C79.374 50.0754 79.4516 49.7042 79.4386 49.4738C79.374 48.4242 79.2965 47.3874 79.219 46.3635C79.219 46.3635 79.2319 46.3635 79.2448 46.3507C79.7616 47.221 80.2913 48.0786 80.8211 48.9618C81.0407 49.2946 81.4283 49.5378 82.0097 49.3842C82.4877 49.2562 82.6815 48.8466 82.5136 48.4626ZM87.5652 45.4163C88.082 45.2883 88.2112 45.0195 88.0303 44.5843C87.5264 43.3811 85.7435 42.2292 83.9218 42.6644C82.1518 43.0867 81.4541 44.7379 82.0614 46.2355C82.7332 47.861 84.5032 48.757 86.3895 48.2834C87.6427 47.9634 88.883 46.9906 88.6117 46.3507C88.4825 46.0435 88.0303 45.8131 87.6686 45.9027C87.2293 46.0051 86.8805 46.7474 86.0277 46.9522C85.2526 47.1442 84.4128 46.9778 83.9864 46.2867C85.2009 45.9923 86.3895 45.6979 87.5652 45.4163ZM83.5471 45.3139C83.3663 44.6739 83.6763 44.0595 84.4257 43.8803C85.2267 43.6883 85.8727 44.0595 86.2215 44.6739C85.343 44.8787 84.4386 45.0963 83.5471 45.3139ZM88.1595 40.386C88.4567 41.1284 89.6324 41.1796 90.3171 41.026C91.0019 40.8724 91.945 40.322 91.6608 39.618C91.5574 39.362 91.2086 39.0805 90.9114 39.1316C90.1879 39.298 90.5497 39.9508 89.9425 40.0788C89.2448 40.2324 89.1285 39.5156 88.4308 39.6692C88.0562 39.7588 88.0432 40.1044 88.1595 40.386ZM94.8391 45.2755C94.3352 44.0083 93.8184 42.7284 93.3016 41.474C93.1078 40.9876 92.6427 40.7444 92.1776 40.8596C91.8804 40.9236 91.6737 41.1668 91.5574 41.474C91.1828 42.434 90.8081 43.4067 90.4463 44.3795C90.4205 44.3795 90.4205 44.3795 90.4205 44.3795C90.1492 43.6883 89.8649 42.9972 89.5807 42.2932C89.3998 41.8196 88.9347 41.5764 88.4437 41.6788C87.9657 41.794 87.759 42.1908 87.9399 42.6644C88.4567 43.9571 88.9735 45.2499 89.4902 46.5427C89.684 47.029 90.1492 47.2722 90.6272 47.157C90.9244 47.093 91.0794 46.9138 91.1698 46.6707C91.5703 45.6211 91.9709 44.5715 92.3584 43.5475C92.3584 43.5475 92.3714 43.5347 92.3843 43.5347C92.6685 44.2387 92.9528 44.9555 93.237 45.6595C93.4437 46.1331 93.8959 46.3763 94.3739 46.2611C94.852 46.1587 95.0329 45.7619 94.8391 45.2755ZM100.95 43.8931C100.446 42.6388 99.9553 41.3844 99.4643 40.1428C99.2835 39.682 98.8442 39.426 98.3791 39.5284C97.9269 39.618 97.7202 40.002 97.9011 40.4628C98.0561 40.8596 98.2111 41.2308 98.3662 41.6148C97.6814 41.7684 96.9967 41.9092 96.3119 42.05C96.1698 41.666 96.0148 41.282 95.8597 40.8852C95.6788 40.4116 95.2396 40.1684 94.7615 40.2708C94.2964 40.3604 94.0768 40.7444 94.2706 41.218C94.7615 42.4852 95.2525 43.7523 95.7434 45.0323C95.9372 45.5187 96.3765 45.7619 96.8545 45.6595C97.3197 45.5571 97.5264 45.1603 97.3455 44.6867C97.1646 44.2131 96.9837 43.7523 96.8029 43.2915C97.4747 43.1507 98.1595 43.01 98.8442 42.8564C99.0251 43.3171 99.206 43.7779 99.3868 44.2387C99.5677 44.7123 100.02 44.9555 100.472 44.8531C100.937 44.7507 101.131 44.3667 100.95 43.8931ZM102.849 42.562C102.526 41.7172 103.728 41.5636 104.658 41.3716C104.684 41.4484 104.71 41.5252 104.736 41.5892C104.994 42.2548 104.787 42.7156 103.999 42.882C103.521 42.9844 103.004 42.946 102.849 42.562ZM105.382 43.2275C105.666 43.6371 105.976 43.6627 106.299 43.5987C106.738 43.4963 106.906 43.0995 106.738 42.69C106.351 41.6916 105.95 40.6932 105.563 39.6948C105.175 38.6965 104.193 38.3125 102.772 38.5813C101.867 38.7605 100.821 39.4772 101.041 40.0404C101.157 40.322 101.48 40.6036 101.945 40.5012C102.358 40.4244 102.333 39.9124 103.224 39.7332C103.663 39.6564 103.935 39.6948 104.038 39.9636C104.09 40.0916 104.141 40.2196 104.193 40.3476C102.772 40.6292 100.756 41.2564 101.376 42.882C101.816 43.9827 102.927 44.3795 104.167 44.1107C104.684 43.9955 105.252 43.6627 105.382 43.2275ZM109.477 39.9252C109.296 39.9636 109.128 39.9892 108.96 40.0276C108.547 40.1044 108.159 39.9252 108.004 39.5284C107.849 39.1188 108.069 38.8501 108.495 38.7733C108.663 38.7349 108.831 38.7093 108.999 38.6709C109.154 39.0933 109.322 39.5156 109.477 39.9252ZM108.237 40.898C107.991 41.3588 107.746 41.8196 107.488 42.2932C107.397 42.4468 107.397 42.5876 107.449 42.7156C107.578 43.0483 107.991 43.3299 108.405 43.2531C108.573 43.2147 108.78 43.1123 108.87 42.9204C109.167 42.2292 109.477 41.538 109.787 40.8468C109.787 40.8468 109.8 40.834 109.813 40.834C109.955 41.2436 110.11 41.6532 110.265 42.0628C110.446 42.5236 110.873 42.7668 111.299 42.69C111.738 42.6004 111.932 42.2292 111.764 41.7812C111.299 40.578 110.86 39.3748 110.407 38.1845C110.239 37.7365 109.813 37.4933 109.374 37.5701C108.857 37.6597 108.353 37.7493 107.836 37.8389C106.648 38.0565 106.079 38.6837 106.493 39.7972C106.764 40.5268 107.488 40.8596 108.237 40.898ZM115.265 41.1156C115.433 41.5764 115.834 41.8324 116.26 41.7684C116.686 41.6916 116.88 41.346 116.725 40.8852C116.57 40.4116 116.389 39.938 116.234 39.4644C116.234 39.4644 116.234 39.4644 116.247 39.4644C117.035 39.9636 117.823 40.45 118.624 40.9492C118.922 41.1284 119.193 41.2948 119.464 41.2436C119.826 41.1796 120.033 40.8596 119.903 40.5012C119.852 40.3476 119.748 40.194 119.568 40.0788C118.805 39.6436 118.03 39.2084 117.268 38.7733C117.565 38.2741 117.849 37.7877 118.159 37.2885C118.276 37.1093 118.314 36.9173 118.237 36.7253C118.133 36.4309 117.785 36.1621 117.436 36.2133C117.229 36.2389 117.009 36.3797 116.893 36.5973C116.57 37.2373 116.221 37.8773 115.898 38.5173C115.756 38.1077 115.614 37.6981 115.472 37.2885C115.317 36.8405 114.904 36.5845 114.477 36.6485C114.064 36.7125 113.857 37.0453 114.012 37.4933C114.425 38.7093 114.852 39.9124 115.265 41.1156ZM121.144 35.6245C119.658 35.8165 119.012 37.1733 119.464 38.5301C119.916 39.9252 121.338 40.9748 122.862 40.77C124.374 40.5524 124.981 39.2468 124.516 37.8645C124.064 36.5333 122.617 35.4453 121.144 35.6245ZM121.557 36.8405C122.32 36.7381 122.901 37.4165 123.121 38.0437C123.327 38.6837 123.211 39.4388 122.449 39.5412C121.686 39.6436 121.092 38.9781 120.885 38.3381C120.666 37.6981 120.769 36.9429 121.557 36.8405ZM132.048 38.9653C132.022 38.9141 132.009 38.8757 131.996 38.8373C131.376 37.6597 130.756 36.4949 130.162 35.3173C130.033 35.0742 129.593 34.7926 129.128 34.8438C128.689 34.895 128.456 35.2022 128.443 35.4581C128.443 36.2773 128.431 37.1093 128.431 37.9285C128.418 37.9285 128.418 37.9285 128.418 37.9285C127.901 37.1605 127.371 36.3925 126.854 35.6245C126.699 35.3813 126.273 35.1382 125.834 35.1766C125.369 35.2277 125.123 35.5733 125.149 35.8421C125.291 37.0709 125.459 38.3125 125.601 39.5668C125.614 39.6052 125.614 39.6436 125.627 39.6948C125.743 40.0532 126.118 40.2964 126.493 40.258C126.958 40.2068 127.087 39.9124 127.035 39.5796C126.893 38.7605 126.751 37.9541 126.609 37.1349H126.622C127.152 37.9413 127.668 38.7605 128.198 39.5668C128.327 39.7716 128.586 40.0148 129.064 39.9508C129.542 39.8996 129.619 39.6052 129.619 39.4132C129.606 38.5429 129.58 37.6725 129.58 36.8149C129.593 36.8149 129.593 36.8149 129.606 36.8149C129.968 37.5957 130.343 38.3765 130.717 39.1572C130.872 39.4772 131.157 39.7076 131.609 39.6564C131.984 39.618 132.151 39.3108 132.048 38.9653ZM136.983 38.4021C136.635 37.2757 136.286 36.1621 135.95 35.0486C135.821 34.6262 135.459 34.3574 135.071 34.3958C134.064 34.4726 133.056 34.5494 132.035 34.639C131.635 34.6646 131.441 34.9718 131.57 35.3941C131.906 36.5333 132.268 37.6597 132.604 38.7989C132.733 39.234 133.108 39.5028 133.508 39.4644C133.883 39.4388 134.077 39.1188 133.947 38.6837C133.637 37.6853 133.34 36.6869 133.043 35.7013C133.611 35.6501 134.18 35.6117 134.761 35.5605C135.058 36.5461 135.356 37.5317 135.666 38.5301C135.808 38.9525 136.17 39.2212 136.544 39.1828C136.932 39.1444 137.113 38.8373 136.983 38.4021ZM138.65 37.4805C138.431 36.6997 139.438 36.7125 140.213 36.6613C140.226 36.7381 140.252 36.8021 140.265 36.8661C140.446 37.4805 140.239 37.8389 139.567 37.8901C139.167 37.9157 138.741 37.8261 138.65 37.4805ZM140.704 38.3637C140.924 38.7605 141.182 38.8117 141.454 38.7861C141.828 38.7605 141.996 38.4277 141.88 38.0565C141.609 37.1477 141.337 36.2389 141.066 35.3173C140.808 34.4214 140.007 33.9606 138.818 34.0246C138.043 34.063 137.126 34.575 137.268 35.0742C137.345 35.3429 137.591 35.6117 138.004 35.5861C138.353 35.5605 138.366 35.1254 139.115 35.0742C139.477 35.0486 139.71 35.1254 139.774 35.3813C139.813 35.4837 139.839 35.5989 139.89 35.7141C138.676 35.7909 136.971 36.0853 137.384 37.5573C137.681 38.5685 138.586 39.0421 139.645 38.9653C140.071 38.9397 140.575 38.7221 140.704 38.3637ZM146.79 37.8261C146.467 36.7125 146.157 35.5989 145.846 34.4982C145.73 34.0886 145.381 33.8198 145.033 33.8326C144.658 33.8454 144.477 34.1398 144.593 34.5494C144.684 34.8822 144.787 35.2278 144.877 35.5605C144.335 35.5861 143.779 35.6117 143.237 35.6373C143.146 35.2917 143.056 34.9462 142.965 34.6134C142.849 34.191 142.5 33.9222 142.126 33.935C141.751 33.9478 141.57 34.2422 141.686 34.6646C141.983 35.7781 142.281 36.9045 142.591 38.0181C142.707 38.4405 143.069 38.7221 143.43 38.6965C143.805 38.6837 143.999 38.3893 143.883 37.9669C143.766 37.5573 143.663 37.1477 143.547 36.7381C144.076 36.7125 144.632 36.6869 145.188 36.6613C145.291 37.0709 145.407 37.4677 145.523 37.8901C145.653 38.2997 145.989 38.5685 146.35 38.5557C146.725 38.5301 146.906 38.2357 146.79 37.8261ZM151.609 37.6597C151.299 36.5717 150.989 35.4837 150.678 34.3958C150.562 33.9862 150.226 33.7174 149.877 33.7302C149.658 33.7302 149.477 33.8966 149.374 34.1142C149.025 34.831 148.702 35.5349 148.379 36.2517C148.366 36.2517 148.353 36.2517 148.353 36.2517C148.198 35.6629 148.03 35.0614 147.875 34.4726C147.759 34.0502 147.423 33.7942 147.048 33.807C146.686 33.807 146.505 34.0886 146.609 34.4982C146.906 35.5989 147.216 36.7125 147.526 37.8261C147.642 38.2357 147.978 38.5045 148.34 38.4917C148.56 38.4789 148.689 38.3765 148.766 38.1845C149.128 37.4165 149.49 36.6485 149.852 35.8933H149.865C150.045 36.4949 150.213 37.0965 150.381 37.7109C150.498 38.1205 150.821 38.3893 151.182 38.3765C151.531 38.3637 151.725 38.0821 151.609 37.6597ZM153.896 35.6885C153.753 35.7013 153.624 35.7013 153.482 35.7013C153.133 35.7013 152.836 35.4965 152.746 35.151C152.655 34.7798 152.836 34.5878 153.185 34.5878C153.314 34.5878 153.456 34.5878 153.598 34.575C153.689 34.9462 153.792 35.3173 153.896 35.6885ZM152.849 36.3157C152.616 36.6741 152.397 37.0325 152.164 37.3781C152.074 37.4933 152.061 37.6085 152.087 37.7237C152.164 38.0181 152.487 38.3125 152.823 38.2997C152.952 38.2997 153.146 38.2485 153.224 38.0949C153.508 37.5701 153.792 37.0325 154.089 36.4949H154.102C154.193 36.8661 154.309 37.2245 154.399 37.5829C154.503 37.9925 154.839 38.2613 155.188 38.2613C155.536 38.2485 155.73 37.9797 155.614 37.5701C155.317 36.4949 155.045 35.4325 154.761 34.3702C154.645 33.9734 154.322 33.7046 153.973 33.7046C153.547 33.7174 153.133 33.7174 152.72 33.7174C151.751 33.7174 151.247 34.1654 151.518 35.1638C151.686 35.8037 152.242 36.1877 152.849 36.3157Z" stroke="#006F34" stroke-width="0.905998" stroke-miterlimit="22.926"/>
<path d="M65.5629 47.6177C65.2528 46.8753 63.612 47.0545 62.8627 47.2593C60.8859 47.7713 60.0978 49.5888 60.7567 51.1632C61.4286 52.8015 63.3795 53.8127 65.4079 53.2367C66.0797 53.0575 67.5784 52.3279 67.2296 51.5344C67.0745 51.1632 66.5836 50.9584 66.1443 51.0736C65.9247 51.1376 65.3691 51.6624 64.904 51.7903C63.8704 52.0719 62.979 51.4192 62.643 50.6512C62.3071 49.8576 62.488 48.9232 63.5603 48.6416C64.1547 48.488 64.7102 48.6672 65.1753 48.5392C65.6017 48.424 65.6921 47.9376 65.5629 47.6177ZM72.6688 48.5648C73.2114 48.424 73.3536 48.1296 73.1598 47.6817C72.6301 46.4273 70.7179 45.2753 68.7412 45.7745C66.8161 46.2737 66.0409 48.04 66.6869 49.6016C67.4104 51.304 69.3226 52.1999 71.3768 51.624C72.7334 51.2656 74.0512 50.1904 73.767 49.5376C73.6378 49.2048 73.1598 48.9744 72.7592 49.0768C72.2941 49.2048 71.9195 49.9984 70.9892 50.2416C70.1236 50.472 69.2321 50.3184 68.7929 49.6016C70.0848 49.256 71.3768 48.9104 72.6688 48.5648ZM68.3148 48.5904C68.1469 47.912 68.4699 47.2465 69.2838 47.0417C70.1236 46.8241 70.8471 47.1825 71.2218 47.8224C70.2528 48.0784 69.2838 48.3344 68.3148 48.5904ZM82.7721 47.7457C82.7592 47.6945 82.7333 47.6433 82.7075 47.6049C81.8548 46.3121 80.9763 45.0321 80.1235 43.7394C79.9297 43.4578 79.3484 43.2146 78.754 43.3682C78.2114 43.4962 77.9143 43.9186 77.9272 44.2385C77.9659 45.2241 78.0176 46.2225 78.0693 47.2081C78.0564 47.2209 78.0435 47.2209 78.0435 47.2209C77.3199 46.3889 76.6094 45.5697 75.8988 44.7505C75.6662 44.4817 75.1107 44.2641 74.5422 44.4049C73.935 44.5585 73.6378 45.0193 73.7024 45.3393C73.9866 46.7985 74.2321 48.2704 74.5293 49.7424C74.5422 49.8064 74.5551 49.8448 74.5809 49.896C74.7489 50.2928 75.2399 50.5232 75.7308 50.3952C76.338 50.2416 76.4672 49.8704 76.3768 49.4864C76.1442 48.5264 75.8988 47.5665 75.6791 46.6193C75.6791 46.6193 75.692 46.6065 75.705 46.6065C76.4156 47.4897 77.1391 48.3728 77.8755 49.2432C78.0564 49.448 78.4052 49.6912 79.0124 49.5248C79.6326 49.3712 79.7101 49 79.6972 48.7568C79.6326 47.7201 79.5551 46.6833 79.4776 45.6465C79.4776 45.6465 79.4905 45.6465 79.5034 45.6465C80.0202 46.5041 80.5499 47.3745 81.0796 48.2448C81.2992 48.5904 81.6868 48.8208 82.2682 48.6672C82.7463 48.552 82.9401 48.1424 82.7721 47.7457ZM87.8238 44.6993C88.3405 44.5713 88.4697 44.3153 88.2759 43.8802C87.785 42.677 86.0021 41.525 84.1804 41.9474C82.4104 42.3698 81.7127 44.0209 82.3199 45.5185C82.9917 47.1569 84.7618 48.0528 86.6481 47.5665C87.9013 47.2593 89.1416 46.2737 88.8703 45.6465C88.7411 45.3265 88.2889 45.0961 87.9271 45.1857C87.4878 45.3009 87.139 46.0305 86.2863 46.2481C85.4982 46.4401 84.6713 46.2737 84.245 45.5697C85.4594 45.2881 86.6481 44.9937 87.8238 44.6993ZM83.8057 44.6097C83.6248 43.957 83.9349 43.3426 84.6842 43.1634C85.4853 42.9842 86.1313 43.3426 86.4801 43.9569C85.6015 44.1745 84.6972 44.3921 83.8057 44.6097ZM88.4051 39.6691C88.7152 40.4114 89.8909 40.4626 90.5757 40.3218C91.2604 40.1683 92.2036 39.6179 91.9193 38.9011C91.816 38.6451 91.4671 38.3635 91.17 38.4275C90.4336 38.5811 90.8082 39.2339 90.201 39.3619C89.5033 39.5155 89.3871 38.8115 88.6894 38.9651C88.3147 39.0419 88.3018 39.3875 88.4051 39.6691ZM95.0976 44.5585C94.5937 43.2914 94.0769 42.0242 93.5602 40.757C93.3664 40.2834 92.9012 40.0403 92.4361 40.1427C92.139 40.2067 91.9323 40.4498 91.816 40.757C91.4413 41.7298 91.0666 42.6898 90.7049 43.6626C90.679 43.6626 90.679 43.6626 90.679 43.6754C90.4077 42.9842 90.1235 42.2802 89.8392 41.589C89.6454 41.1154 89.1933 40.8594 88.7023 40.9746C88.2243 41.077 88.0175 41.4738 88.1984 41.9602C88.7152 43.2402 89.232 44.5329 89.7488 45.8257C89.9426 46.3121 90.4077 46.5553 90.8857 46.4529C91.1829 46.3761 91.3379 46.2097 91.4284 45.9537C91.8289 44.9041 92.2294 43.8674 92.617 42.8306C92.617 42.8306 92.6299 42.8306 92.6428 42.8306C92.9271 43.5346 93.1984 44.2385 93.4956 44.9425C93.6894 45.4289 94.1545 45.6721 94.6325 45.5569C95.1105 45.4417 95.2914 45.0449 95.0976 44.5585ZM101.209 43.1762C100.705 41.9346 100.214 40.6802 99.7229 39.4259C99.542 38.9651 99.1027 38.7219 98.6376 38.8115C98.1854 38.9011 97.9787 39.2851 98.1596 39.7587C98.3146 40.1427 98.4697 40.5266 98.6247 40.9106C97.94 41.0514 97.2552 41.1922 96.5705 41.333C96.4283 40.949 96.2733 40.565 96.1183 40.181C95.9374 39.7075 95.4981 39.4643 95.0201 39.5539C94.555 39.6563 94.3353 40.0275 94.5291 40.5138C95.0201 41.7682 95.511 43.0482 96.002 44.3281C96.1958 44.8017 96.6351 45.0449 97.1131 44.9425C97.5782 44.8401 97.7849 44.4433 97.6041 43.9698C97.4232 43.509 97.2423 43.0482 97.0614 42.5874C97.7332 42.4338 98.418 42.293 99.1027 42.1394C99.2836 42.613 99.4645 43.061 99.6454 43.5218C99.8263 43.9954 100.278 44.2385 100.731 44.1361C101.196 44.0338 101.39 43.6498 101.209 43.1762ZM103.108 41.8578C102.785 41.0002 103.986 40.8466 104.917 40.6674C104.943 40.7314 104.968 40.8082 104.994 40.885C105.253 41.5506 105.046 41.9986 104.258 42.165C103.78 42.2674 103.263 42.2418 103.108 41.8578ZM105.64 42.5234C105.924 42.933 106.234 42.9586 106.557 42.8818C106.997 42.7922 107.165 42.3826 106.997 41.973C106.609 40.9746 106.209 39.9763 105.821 38.9779C105.433 37.9923 104.452 37.5955 103.03 37.8771C102.126 38.0435 101.079 38.7731 101.299 39.3363C101.415 39.6179 101.738 39.8867 102.204 39.7971C102.617 39.7075 102.578 39.2083 103.483 39.0291C103.922 38.9395 104.193 38.9907 104.297 39.2595C104.348 39.3875 104.387 39.5027 104.452 39.6307C103.03 39.9123 101.015 40.5522 101.635 42.165C102.074 43.2786 103.185 43.6626 104.426 43.3938C104.943 43.2914 105.511 42.9586 105.64 42.5234ZM109.736 39.2211C109.555 39.2467 109.387 39.2851 109.219 39.3107C108.806 39.3875 108.418 39.2211 108.263 38.8115C108.108 38.4019 108.327 38.1331 108.754 38.0563C108.922 38.0307 109.09 37.9923 109.258 37.9667C109.413 38.3763 109.581 38.7987 109.736 39.2211ZM108.495 40.181C108.25 40.6546 108.005 41.1154 107.746 41.5762C107.656 41.7298 107.656 41.8706 107.707 41.9986C107.837 42.3442 108.25 42.613 108.663 42.5362C108.831 42.4978 109.038 42.4082 109.129 42.2034C109.426 41.5122 109.736 40.821 110.046 40.1299H110.059C110.214 40.5266 110.369 40.9362 110.524 41.3458C110.705 41.8066 111.131 42.0498 111.557 41.973C111.997 41.8834 112.191 41.525 112.023 41.0642C111.557 39.8611 111.118 38.6707 110.666 37.4803C110.498 37.0195 110.072 36.7763 109.632 36.8531C109.116 36.9427 108.612 37.0323 108.095 37.1219C106.906 37.3395 106.338 37.9667 106.751 39.0931C107.023 39.8227 107.746 40.1554 108.495 40.181ZM115.524 40.4114C115.692 40.8594 116.092 41.1154 116.519 41.0514C116.945 40.9874 117.139 40.629 116.984 40.181C116.829 39.7075 116.648 39.2339 116.493 38.7603C116.493 38.7603 116.493 38.7603 116.506 38.7475C117.294 39.2467 118.082 39.7331 118.883 40.2322C119.18 40.4114 119.451 40.5778 119.723 40.5394C120.085 40.4754 120.291 40.1427 120.162 39.7843C120.11 39.6435 120.007 39.4771 119.826 39.3747C119.064 38.9395 118.289 38.4915 117.526 38.0563C117.824 37.5699 118.108 37.0707 118.418 36.5843C118.534 36.3923 118.56 36.2132 118.495 36.0084C118.392 35.714 118.043 35.4452 117.694 35.4964C117.488 35.5348 117.268 35.6628 117.152 35.8804C116.829 36.5203 116.48 37.1603 116.157 37.8003C116.015 37.3907 115.873 36.9811 115.731 36.5715C115.576 36.1236 115.162 35.8676 114.736 35.9316C114.322 35.9956 114.116 36.3411 114.271 36.7891C114.684 37.9923 115.11 39.1955 115.524 40.4114ZM121.402 34.9204C119.917 35.0996 119.271 36.4563 119.723 37.8131C120.175 39.2211 121.596 40.2706 123.121 40.0531C124.632 39.8483 125.24 38.5299 124.774 37.1603C124.322 35.8164 122.875 34.7284 121.402 34.9204ZM121.816 36.1236C122.578 36.034 123.159 36.6995 123.379 37.3395C123.586 37.9795 123.47 38.7219 122.707 38.8243C121.945 38.9267 121.351 38.2739 121.131 37.6339C120.924 36.9939 121.028 36.226 121.816 36.1236ZM132.307 38.2483C132.281 38.1971 132.268 38.1715 132.255 38.1203C131.635 36.9555 131.015 35.778 130.42 34.6132C130.291 34.3572 129.852 34.0884 129.387 34.1268C128.948 34.178 128.715 34.4852 128.702 34.754C128.702 35.5732 128.689 36.3923 128.689 37.2115C128.676 37.2115 128.676 37.2115 128.676 37.2115C128.159 36.4435 127.63 35.6884 127.113 34.9076C126.958 34.6772 126.532 34.4212 126.092 34.4596C125.627 34.5108 125.369 34.8564 125.407 35.1252C125.55 36.3668 125.718 37.6083 125.86 38.8499C125.873 38.9011 125.873 38.9395 125.886 38.9779C126.002 39.3363 126.376 39.5923 126.751 39.5411C127.216 39.4899 127.345 39.1955 127.294 38.8755C127.152 38.0563 127.01 37.2371 126.867 36.4307C126.867 36.4307 126.88 36.4307 126.88 36.4179C127.41 37.2371 127.927 38.0435 128.457 38.8627C128.586 39.0547 128.844 39.2979 129.322 39.2467C129.8 39.1827 129.878 38.9011 129.878 38.6963C129.865 37.8259 129.839 36.9683 129.839 36.1108C129.852 36.1108 129.852 36.1108 129.865 36.098C130.227 36.8787 130.601 37.6723 130.976 38.4531C131.131 38.7603 131.415 39.0035 131.867 38.9523C132.242 38.9011 132.41 38.5939 132.307 38.2483ZM137.242 37.6851C136.893 36.5715 136.544 35.4452 136.208 34.3316C136.079 33.9092 135.718 33.6532 135.33 33.6788C134.322 33.7556 133.314 33.8452 132.294 33.922C131.893 33.9476 131.699 34.2548 131.829 34.69C132.165 35.8164 132.526 36.9555 132.862 38.0947C132.991 38.5299 133.366 38.7987 133.767 38.7603C134.141 38.7219 134.335 38.4019 134.206 37.9667C133.896 36.9811 133.599 35.9828 133.301 34.9844C133.87 34.946 134.438 34.8948 135.02 34.8436C135.317 35.8292 135.614 36.8275 135.924 37.8131C136.066 38.2483 136.428 38.5043 136.803 38.4659C137.19 38.4403 137.371 38.1203 137.242 37.6851ZM138.896 36.7635C138.676 35.9828 139.697 36.0084 140.472 35.9572C140.485 36.0212 140.511 36.0852 140.524 36.1492C140.705 36.7635 140.498 37.1347 139.826 37.1731C139.425 37.1987 138.999 37.1091 138.896 36.7635ZM140.963 37.6467C141.183 38.0435 141.441 38.0947 141.712 38.0691C142.087 38.0435 142.255 37.7235 142.139 37.3523C141.867 36.4307 141.596 35.522 141.325 34.6132C141.066 33.7044 140.265 33.2436 139.077 33.3076C138.301 33.3588 137.384 33.858 137.526 34.37C137.604 34.626 137.849 34.8948 138.263 34.8692C138.612 34.8436 138.624 34.4084 139.374 34.37C139.736 34.3444 139.968 34.4212 140.033 34.6644C140.071 34.7796 140.097 34.8948 140.149 35.01C138.935 35.0868 137.229 35.3812 137.655 36.8531C137.94 37.8643 138.844 38.3379 139.904 38.2611C140.33 38.2227 140.834 38.0051 140.963 37.6467ZM147.048 37.1091C146.725 35.9956 146.415 34.8948 146.105 33.794C145.989 33.3716 145.64 33.1156 145.291 33.1284C144.916 33.1412 144.736 33.4228 144.852 33.8324C144.942 34.178 145.046 34.5236 145.136 34.8564C144.593 34.882 144.038 34.8948 143.495 34.9204C143.405 34.5876 143.314 34.242 143.224 33.8964C143.108 33.4868 142.759 33.218 142.384 33.2308C142.009 33.2436 141.829 33.5252 141.945 33.9476C142.242 35.0612 142.539 36.1876 142.849 37.3139C142.966 37.7363 143.327 38.0051 143.689 37.9795C144.064 37.9667 144.258 37.6723 144.141 37.2499C144.025 36.8403 143.922 36.4307 143.805 36.0212C144.335 35.9956 144.891 35.97 145.446 35.9444C145.549 36.3539 145.666 36.7635 145.782 37.1731C145.911 37.5827 146.247 37.8515 146.609 37.8387C146.971 37.8131 147.164 37.5315 147.048 37.1091ZM151.867 36.9555C151.557 35.8548 151.247 34.7668 150.937 33.6788C150.821 33.2692 150.485 33.0004 150.136 33.0132C149.916 33.026 149.736 33.1796 149.632 33.41C149.283 34.114 148.96 34.8308 148.637 35.5476C148.624 35.5476 148.611 35.5476 148.611 35.5476C148.456 34.946 148.288 34.3572 148.133 33.7556C148.017 33.346 147.681 33.0772 147.307 33.09C146.945 33.1028 146.764 33.3844 146.867 33.794C147.164 34.8948 147.475 35.9956 147.785 37.1091C147.901 37.5187 148.237 37.8003 148.599 37.7747C148.818 37.7747 148.947 37.6595 149.025 37.4675C149.387 36.6995 149.748 35.9444 150.11 35.1764H150.123C150.291 35.7908 150.472 36.3923 150.64 37.0067C150.756 37.4163 151.079 37.6851 151.441 37.6595C151.79 37.6467 151.984 37.3651 151.867 36.9555ZM154.154 34.9844C154.012 34.9844 153.883 34.9844 153.741 34.9844C153.392 34.9844 153.095 34.7924 153.004 34.434C152.914 34.0756 153.095 33.8708 153.443 33.8708C153.573 33.8708 153.715 33.8708 153.857 33.8708C153.947 34.242 154.051 34.6132 154.154 34.9844ZM153.108 35.6116C152.875 35.9572 152.655 36.3155 152.423 36.6611C152.332 36.7891 152.319 36.9043 152.345 37.0067C152.423 37.3139 152.746 37.5955 153.082 37.5955C153.211 37.5955 153.405 37.5315 153.482 37.3907C153.766 36.8531 154.051 36.3156 154.348 35.7908H154.361C154.451 36.1492 154.568 36.5075 154.658 36.8787C154.761 37.2883 155.097 37.5571 155.446 37.5443C155.795 37.5315 155.989 37.2627 155.872 36.8531C155.575 35.7908 155.304 34.7284 155.02 33.666C154.903 33.2564 154.58 32.9876 154.232 33.0004C153.805 33.0004 153.392 33.0004 152.978 33.0004C152.009 33.0132 151.506 33.4612 151.777 34.4468C151.945 35.0996 152.5 35.4708 153.108 35.6116Z" fill="#FEFEFE"/>
</g>
<defs>
<radialGradient id="paint0_radial_402_8555" cx="0" cy="0" r="1" gradientUnits="userSpaceOnUse" gradientTransform="translate(89.7242 -10.3549) scale(125.862 124.693)">
<stop stop-color="#CC2D40"/>
<stop offset="0.101961" stop-color="#CC2D40"/>
<stop offset="0.890196" stop-color="#7C2727"/>
<stop offset="1" stop-color="#7C2727"/>
</radialGradient>
<radialGradient id="paint1_radial_402_8555" cx="0" cy="0" r="1" gradientUnits="userSpaceOnUse" gradientTransform="translate(108.21 42.3814) rotate(7.54493) scale(99.2076 98.2996)">
<stop stop-color="#007C39"/>
<stop offset="0.101961" stop-color="#007C39"/>
<stop offset="0.842214" stop-color="#00582E"/>
<stop offset="1" stop-color="#00582E"/>
</radialGradient>
<clipPath id="clip0_402_8555">
<rect width="170" height="69" fill="white"/>
</clipPath>
</defs>
</svg>
